<?xml version="1.0" encoding="utf-8"?>
<!-- Generator: Adobe Illustrator 16.0.4, SVG Export Plug-In . SVG Version: 6.00 Build 0)  -->
<!DOCTYPE svg PUBLIC "-//W3C//DTD SVG 1.1//EN" "http://www.w3.org/Graphics/SVG/1.1/DTD/svg11.dtd">
<svg version="1.1" id="Ebene_1" xmlns="http://www.w3.org/2000/svg" xmlns:xlink="http://www.w3.org/1999/xlink" x="0px" y="0px"
	 width="1170px" height="445px" viewBox="0 0 1170 445" enable-background="new 0 0 1170 445" xml:space="preserve">
<path d="M153.018,121.556c0,0,25.588,25.576,37.353,38.77v10.003c-10.963-11.599-33.696-21.294-54.824-21.294
	c-47.836,0-77.867,36.078-77.867,80.731c0,44.486,28.441,80.566,77.867,80.566c24.629,0,44.333-11.614,55.303-23.526v9.529
	c-14.943,20.509-42.275,33.859-76.284,33.859c-60.869,0-102.811-44.177-102.811-100.429c0-56.254,46.555-100.274,102.811-100.274
	c14.311,0,27.177,2.383,38.459,6.361v-14.297L153.018,121.556L153.018,121.556z"/>
<path d="M125.368,229.448c0-32.42,3.02-46.717,13.982-46.717c10.969,0,13.982,14.299,13.982,46.717
	c0,32.412-3.013,46.708-13.982,46.708C128.388,276.156,125.368,261.858,125.368,229.448 M85.952,229.766
	c0,32.095,19.709,58.153,53.39,58.153c33.688,0,53.394-26.059,53.394-58.153c0-32.103-19.706-58.155-53.394-58.155
	C105.662,171.61,85.952,197.664,85.952,229.766"/>
<path d="M267.909,210.06c0-9.533-3.018-16.995-11.279-16.995s-11.609,7.462-11.609,16.995v62.764h9.693v10.019h-53.077v-10.019
	h9.854v-86.44h-9.854v-9.683h41.796v16.199h0.473c3.972-8.898,13.189-18.267,27.967-18.267c15.572,0,25.11,9.533,28.133,22.077
	c1.11,4.923,1.423,13.037,1.423,17.167v58.96h12.712v10.005h-46.242v-72.78h0.008V210.06L267.909,210.06z"/>
<path d="M359.124,186.381v78.503c0,5.401,3.495,6.669,6.838,6.669c3.182,0,6.195-1.104,6.195-1.104v9.682
	c0,0-6.351,3.976-20.5,3.976c-16.529,0-26.216-8.108-26.216-25.259v-72.467h-11.294v-7.147c12.564-9.999,27.19-21.446,38.786-31.143
	h6.198V176.7h13.027v9.682H359.124L359.124,186.381z"/>
<path d="M388.126,148.563c0,20.836,41.011,20.836,41.011,0C429.135,127.714,388.126,127.714,388.126,148.563 M391.636,186.381
	h-9.704V176.7h43.231v96.135h9.852v10.005h-53.083v-10.005h9.704V186.381z"/>
<path d="M509.783,210.06c0-9.533-3.026-16.995-11.292-16.995c-8.258,0-11.6,7.462-11.6,16.995v62.764h9.683v10.019h-53.073v-10.019
	h9.852v-86.44h-9.852v-9.683h41.796v16.199h0.472c3.972-8.898,13.196-18.267,27.971-18.267c15.578,0,25.11,9.533,28.13,22.077
	c1.108,4.923,1.43,13.037,1.43,17.167v58.96h12.709v10.005h-46.239v-72.78h0.01v-0.002H509.783z"/>
<path d="M642.465,254.547c-4.768,5.562-12.238,9.859-23.365,9.859c-9.697,0-24.637-5.41-25.268-30.027h56.725
	c0.156-1.913,0.32-5.736,0.32-7.646c0-29.856-12.234-52.109-44.176-52.109c-32.096,0-48.472,24.628-48.472,55.303
	c0,30.672,16.378,54.809,48.472,54.809c20.664,0,33.693-9.683,41.316-24.94L642.465,254.547z M593.832,224.042
	c0-27.978,2.234-38.463,11.766-38.463c9.689,0,11.6,10.183,11.92,38.463H593.832z"/>
<path d="M724.145,210.06c0-9.533-3.02-16.995-11.283-16.995c-8.271,0-11.607,7.462-11.607,16.995v62.764h9.689v10.019h-53.08
	v-10.019h9.861v-86.44h-9.861v-9.683h41.803v16.199h0.467c3.984-8.898,13.201-18.267,27.971-18.267
	c15.572,0,25.109,9.533,28.135,22.077c1.104,4.923,1.432,13.037,1.432,17.167v58.96h12.711v10.005h-46.24v-72.78h0.004V210.06
	L724.145,210.06z"/>
<path d="M815.355,186.381v78.503c0,5.401,3.496,6.669,6.836,6.669c3.186,0,6.195-1.104,6.195-1.104v9.682
	c0,0-6.346,3.976-20.5,3.976c-16.529,0-26.219-8.108-26.219-25.259v-72.467h-11.291v-7.147
	c12.564-9.999,27.189-21.446,38.783-31.143h6.193V176.7h13.031v9.682H815.355L815.355,186.381z"/>
<path d="M889.406,230.231c-0.945-0.951-3.006-2.212-7.307-2.212c-10.01,0-12.229,9.859-12.229,20.022
	c0,10.003,3.014,18.104,11.607,18.104c4.123,0,6.668-1.751,7.936-3.185v-32.731h-0.006v0.002H889.406z M890.844,270.116h-0.48
	c-6.182,8.751-14.453,14.627-27.158,14.627c-17.332,0-28.145-14.784-28.145-32.417c0-21.283,15.104-34.802,39.258-34.802
	c9.865,0,15.09,2.238,15.09,2.238v-6.667c0-12.883-7.945-19.714-19.537-19.714c-16.059,0-24.314,12.399-24.314,12.399l-5.869-7.155
	c10.635-16.529,27-23.986,42.262-23.986c25.744,0,41.004,15.253,41.004,38.457v59.741h10.805v10.018h-42.912L890.844,270.116
	L890.844,270.116z"/>
<path d="M945.506,147.132H933.9v-9.689h45.129v135.393h13.031v10.005h-46.566V147.132H945.506z"/>
<path d="M1127.461,215.468c-0.959-3.657-2.377-7.786-3.492-9.859c0,0,0.637-0.628,1.904,0.164c1.268,0.787,9.381,6.354,9.381,6.354
	c4.127,6.031,6.66,30.821,6.824,39.729c-3.801-1.76-9.207-4.779-12.709-8.107L1127.461,215.468z"/>
<path d="M1102.988,192.426c-6.668-7.31-12.236-14.145-17.631-22.245c3.486-6.676,6.027-24.309,4.439-31.148
	c-0.631-2.074-6.35-9.689-7.301-10.805c-1.43-1.429-6.037-6.67-8.266-6.67c-0.479,0-0.951,0.157-1.115,0.316l0.637,5.883
	c-6.197,3.977-14.303,9.379-21.609,14.782c0,2.054,0.156,5.234,0.314,6.348c1.107,0.951,2.389,1.752,3.814,2.218
	c2.863-0.468,11.766-2.699,14.141-2.382l-8.744,13.195l-10.012,7.135l-12.549-3.973c-0.789-0.142-1.584,0-2.07,0.645l-9.215,10.005
	c-0.467,0.472-0.795,0.959-0.795,2.074l-0.324,11.278c0,0-0.148,1.744-0.148,3.648c0,8.114,3.664,11.923,3.664,11.923l6.041-8.736
	c-0.805-1.268-2.236-4.771-2.557-6.361c0-0.316,0.158-9.689,0.158-9.689l5.881-4.294l15.564,10.964c0,0,4.295,7.956,8.428,12.722
	c2.693,3.333,16.203,12.385,22.729,16.208c0.631,3.499,2.061,9.222,3.176,12.228l19.07,19.543l-11.283,14.145
	c-3.98,2.544-7.787,7.163-7.471,11.442h13.037l1.418-7.466l15.584-17.312c0.783-0.966,0.783-1.43,0.314-2.862l-4.449-14.95
	c2.232-2.538,6.982-8.878,6.982-16.519C1122.852,199.896,1107.754,196.405,1102.988,192.426L1102.988,192.426z"/>
<path d="M1032.75,163.989c-0.473,0.142-12.08,3.336-12.08,3.336s-5.398,2.054-7.785,3.65c-2.377,1.588-5.084,4.287-5.246,5.725
	l10.332,2.375c1.598-1.745,3.338-3.649,4.932-4.909l2.375-1.116l8.578-8.744C1033.865,164.305,1033.549,163.819,1032.75,163.989z"/>
<path d="M1081.535,253.286l14.621-13.986l6.043,6.029l-15.74,13.352c-1.268,1.582-2.219,4.131-3.014,5.726h-11.6
	C1072.477,260.119,1078.516,254.717,1081.535,253.286z"/>
<path d="M1003.984,282.84v-5.09h155.262v5.09H1003.984z"/>
</svg>
