<?xml version="1.0" encoding="UTF-8" standalone="no"?>
<svg
   xmlns:dc="http://purl.org/dc/elements/1.1/"
   xmlns:cc="http://creativecommons.org/ns#"
   xmlns:rdf="http://www.w3.org/1999/02/22-rdf-syntax-ns#"
   xmlns:svg="http://www.w3.org/2000/svg"
   xmlns="http://www.w3.org/2000/svg"
   xmlns:sodipodi="http://sodipodi.sourceforge.net/DTD/sodipodi-0.dtd"
   xmlns:inkscape="http://www.inkscape.org/namespaces/inkscape"
   viewBox="0 0 650 750"
   height="750"
   width="650"
   version="1.1"
   id="svg3354"
   inkscape:version="0.91 r13725"
   sodipodi:docname="logo.svg">
  <sodipodi:namedview
     pagecolor="#ffffff"
     bordercolor="#ffffff"
     borderopacity="1"
     objecttolerance="10"
     gridtolerance="10"
     guidetolerance="10"
     inkscape:pageopacity="0"
     inkscape:pageshadow="2"
     inkscape:window-width="1304"
     inkscape:window-height="746"
     id="namedview4166"
     showgrid="false"
     inkscape:zoom="0.62933333"
     inkscape:cx="354.67413"
     inkscape:cy="313.55282"
     inkscape:window-x="54"
     inkscape:window-y="-8"
     inkscape:window-maximized="1"
     inkscape:current-layer="svg3354" />
  <metadata
     id="metadata3360">
    <rdf:RDF>
      <cc:Work
         rdf:about="">
        <dc:format>image/svg+xml</dc:format>
        <dc:type
           rdf:resource="http://purl.org/dc/dcmitype/StillImage" />
        <dc:title></dc:title>
      </cc:Work>
    </rdf:RDF>
  </metadata>
  <defs
     id="defs3358" />
  <path
     style="fill:#ffffff"
     d="m 303.7671,739.17213 -4.29292,-0.31139 0.5135,-5.70188 c 1.34941,-14.98378 1.63647,-33.06931 0.5353,-33.72526 -2.21037,-1.31669 -2.8789,1.22562 -3.44605,13.10479 -0.31532,6.60435 -0.82946,15.33424 -1.14253,19.39974 l -0.56923,7.39183 -7.63171,-0.52103 c -4.19744,-0.28656 -7.82534,-0.71033 -8.062,-0.94169 -0.23665,-0.23138 0.0944,-7.29816 0.7356,-15.70398 1.55748,-20.41676 1.51461,-23.7911 -0.30174,-23.75051 -1.78494,0.0399 -2.17657,2.36166 -3.55565,21.07946 -1.52448,20.69121 -0.50654,18.78927 -9.64166,18.01464 -4.2394,-0.35948 -7.88107,-0.8228 -8.09259,-1.02961 -0.38907,-0.38037 4.69949,-45.9642 5.18806,-46.47523 0.14538,-0.15206 3.48007,-0.0495 7.41042,0.228 6.2728,0.44282 7.14611,0.75028 7.14611,2.51586 0,1.98148 0.0313,1.98237 2.10499,0.0594 3.19907,-2.96661 10.97474,-2.86341 14.30397,0.18984 2.54078,2.33016 2.5942,2.33467 4.68555,0.3953 1.48803,-1.37991 3.59298,-1.99476 7.09706,-2.07307 4.22793,-0.0945 5.3497,0.3084 7.41467,2.66293 2.43226,2.77332 2.43299,2.78134 2.16342,23.95166 l -0.26966,21.1774 -4,0.18709 c -2.2,0.10286 -5.93181,0.0469 -8.29291,-0.12428 z m 54.52628,-1.67797 c -10.2247,-1.95477 -11.7653,-5.50752 -12.485,-28.79167 -0.5004,-16.18875 -0.3718,-18.36498 1.2675,-21.44568 2.6131,-4.91055 7.465,-7.65592 14.8742,-8.41623 7.2917,-0.74826 14.3603,1.58558 17.0491,5.62906 1.6342,2.45757 4.3315,13.22263 3.5104,14.01003 -0.2473,0.23709 -4.1621,0.8362 -8.6996,1.33136 l -8.25,0.90028 -0.015,-4.85374 c -0.018,-5.64166 -1.2894,-8.42055 -3.0361,-6.63483 -0.8462,0.86514 -0.8416,5.43859 0.018,17.99123 0.634,9.25717 1.3891,17.63819 1.6779,18.62452 1.0952,3.73957 2.8631,0.81445 3.1536,-5.21783 0.2338,-4.8557 -0.036,-6.31085 -1.25,-6.74969 -1.0247,-0.37032 -1.5481,-1.85482 -1.5481,-4.39119 0,-3.75576 0.084,-3.84443 4.25,-4.47173 2.3375,-0.35199 6.4996,-0.81008 9.2492,-1.01796 l 4.9991,-0.37797 1.7153,14.9473 c 0.9433,8.22102 1.3937,15.26473 1.0008,15.65272 -1.471,1.45258 -11.3253,1.53093 -12.2238,0.0972 -0.726,-1.15838 -1.1947,-1.08327 -2.8564,0.45767 -2.6688,2.4749 -7.8083,3.60516 -12.4008,2.72716 z m 39.5292,-4.85222 c -1.9725,-0.51061 -3.8008,-1.91486 -4.6792,-3.59403 -1.9668,-3.75927 -3.0883,-14.36749 -1.771,-16.75083 0.5742,-1.03887 4.1138,-3.99273 7.8658,-6.56414 5.6684,-3.88476 6.7806,-5.09364 6.5778,-7.1496 -0.489,-4.95812 -1.328,-6.95009 -2.9127,-6.91468 -1.3729,0.0307 -1.5209,0.86575 -0.9747,5.50114 0.7254,6.15583 0.708,6.17026 -8.3686,6.93103 l -4.5,0.37718 -0.3107,-4.88926 c -0.4247,-6.68118 1.2798,-10.23698 6.4007,-13.35244 8.7262,-5.30888 20.5288,-4.39173 23.7937,1.84893 2.0788,3.97363 8.9088,38.7448 7.7488,39.44874 -0.3479,0.21107 -3.9887,1.01775 -8.0907,1.79262 -5.7806,1.09196 -7.548,1.14126 -7.8577,0.21919 -0.271,-0.80698 -1.0886,-0.5496 -2.5418,0.80009 -2.7582,2.56182 -6.3143,3.34846 -10.3797,2.29606 z m 11.2589,-14.36134 c -0.3664,-2.87931 -0.9156,-6.10116 -1.2205,-7.15966 -0.5408,-1.87743 -0.5881,-1.87781 -1.9277,-0.0158 -2.5808,3.58711 -1.0052,12.5183 2.1958,12.44677 1.3705,-0.0306 1.5165,-0.83854 0.9524,-5.27128 z m -179.76239,15.84411 c -10.65517,-3.56477 -12.02519,-7.34354 -8.89417,-24.53181 2.53909,-13.9387 4.82349,-19.21728 9.3949,-21.70883 3.7155,-2.02505 10.86458,-2.36452 16.06955,-0.76304 4.2443,1.30591 9.22201,6.53117 10.12681,10.63045 0.93826,4.25091 -2.13119,25.99881 -4.25323,30.1353 -3.38991,6.60795 -13.19349,9.33271 -22.44386,6.23793 z m 9.97619,-22.88268 c 2.14593,-13.88903 2.23406,-18.38204 0.32054,-16.34171 -0.88655,0.94531 -5.05581,25.20983 -5.05581,29.42413 0,1.3734 0.49463,2.09707 1.25,1.82879 0.77352,-0.27473 2.10206,-5.95869 3.48527,-14.91121 z m -34.94411,17.99814 c -12.2117,-2.91274 -12.62038,-4.37426 -7.40158,-26.46919 2.63375,-11.15056 3.04245,-14.13516 1.96738,-14.36728 -2.60844,-0.56324 -1.00115,-7.15431 1.75967,-7.21601 1.34849,-0.0301 1.88337,-0.761 1.88337,-2.57346 0,-3.44274 1.78372,-3.91687 9.17818,-2.43967 l 6.30319,1.25919 -0.3173,3.69004 c -0.27255,3.16954 -0.0244,3.6835 1.75931,3.64364 1.52967,-0.0342 2.07662,0.59053 2.07662,2.37181 0,4.06842 -0.90998,5.34199 -3.504,4.90408 -1.89166,-0.31935 -2.52103,0.0991 -2.95404,1.96426 -1.62114,6.98284 -5.54196,26.09653 -5.54196,27.01664 0,0.58795 1.35,1.50944 3,2.04776 3.09934,1.01118 3.39421,1.70143 2.36971,5.54721 -0.71205,2.67294 -1.72613,2.73247 -10.57855,0.62098 z m 225.35781,-25.81399 c -2.3441,-12.40152 -3.8991,-22.87835 -3.4555,-23.28183 0.716,-0.6513 11.3337,-3.25075 13.4733,-3.29856 0.4583,-0.0102 0.8332,0.98391 0.8332,2.20922 0,1.97836 0.3441,1.80269 3.0728,-1.56866 1.6901,-2.08808 3.4354,-3.80461 3.8784,-3.81451 0.7903,-0.0177 4.0488,11.44607 4.0488,14.24372 0,0.78274 -1.335,2.00598 -2.9667,2.71833 -1.6317,0.71233 -3.22,2.09868 -3.5295,3.08078 -0.4639,1.47178 3.2145,21.14256 5.06,27.05974 0.4175,1.33862 -0.8021,1.97831 -6.4721,3.39462 -3.8426,0.95985 -7.5927,1.75872 -8.3335,1.77528 -0.9643,0.0215 -2.5583,-6.37766 -5.6092,-22.51813 z m -109.14897,12.61754 0,-5.53498 10.55226,-0.23581 10.55226,-0.2358 -0.30226,5.25675 -0.30226,5.25675 -10.25,0.51403 -10.25,0.51405 0,-5.53499 z m 145.39267,1.0592 c -1.159,-0.5359 -2.89,-2.59826 -3.8467,-4.58302 -2.0525,-4.25832 -3.168,-13.18703 -1.9218,-15.38264 0.4817,-0.84873 3.5118,-3.74189 6.7335,-6.42924 5.5029,-4.59013 5.8238,-5.09408 5.2984,-8.32015 -0.6808,-4.17991 -2.5646,-6.70226 -3.9488,-5.28718 -0.6366,0.65083 -0.5659,2.62438 0.2027,5.6595 0.649,2.56311 1.0473,4.76576 0.885,4.89477 -0.1622,0.12901 -3.1007,0.98798 -6.5299,1.90881 l -6.2348,1.67423 -1.0096,-3.61196 c -1.5384,-5.50407 -1.2366,-8.49342 1.2293,-12.17713 3.0708,-4.58738 8.9534,-7.53943 16.2797,-8.16965 5.4284,-0.46696 6.4084,-0.24518 9.2685,2.09753 2.7473,2.25028 3.9742,5.02621 8.7001,19.68482 4.7814,14.83093 6.2309,20.49787 5.2485,20.51982 -0.1392,0.003 -3.3671,0.96574 -7.1729,2.13917 -4.7321,1.45899 -7.3025,1.82452 -8.1301,1.15616 -0.8477,-0.68461 -1.3908,-0.50285 -1.8129,0.60678 -0.6667,1.75219 -6.5593,4.66521 -9.3488,4.6216 -0.9801,-0.0153 -2.7304,-0.46632 -3.8894,-1.00222 z m 12.4126,-11.35951 c 0.1678,-0.86902 -0.4494,-4.15882 -1.3716,-7.31067 -1.6284,-5.56511 -1.7149,-5.65976 -2.9947,-3.27699 -1.3364,2.48824 -1.1294,5.19703 0.7792,10.19446 1.1035,2.88942 3.0633,3.10425 3.5871,0.3932 z M 168.0391,722.1156 c -6.58983,-2.13138 -11.32362,-5.47791 -12.10005,-8.55409 -0.6042,-2.39382 -0.0309,-11.0549 0.78715,-11.8912 0.2204,-0.22533 3.76067,0.55201 7.86727,1.72741 7.78654,2.22869 7.93802,2.41207 6.55843,7.93964 -0.73493,2.94462 1.97943,4.75309 3.49372,2.32775 2.16643,-3.46983 0.86956,-6.30996 -6.08561,-13.32744 -6.23273,-6.28856 -7,-7.4896 -7,-10.95739 0,-4.90567 3.71907,-12.48779 7,-14.27099 3.50433,-1.90461 12.94422,-1.18267 18.58343,1.42121 6.04173,2.78974 8.70885,6.93033 7.91182,12.28281 -0.32869,2.20735 -0.91935,4.3428 -1.31257,4.74547 -0.62127,0.63618 -11.50123,-1.42199 -13.35901,-2.52714 -0.37198,-0.22128 -0.26383,-1.84983 0.24033,-3.619 1.17069,-4.10812 -0.50897,-6.1999 -2.63132,-3.27691 -2.58153,3.55539 -1.59295,5.67356 5.81732,12.46435 7.10746,6.51329 7.24852,6.7389 7.17475,11.47489 -0.0949,6.09173 -2.8622,12.05099 -6.50994,14.01882 -3.73028,2.01237 -10.25451,2.02103 -16.43572,0.0218 z m 342.02088,-11.56017 c -2.4659,-0.53793 -6.5,-4.06141 -6.5,-5.67723 0,-1.47468 13.8371,-6.8406 14.5806,-5.65424 1.0941,1.74581 3.4191,0.751 3.4041,-1.4565 -0.025,-3.72279 -1.4137,-5.11153 -3.073,-3.07376 -0.7764,0.95358 -2.8597,2.37143 -4.6296,3.15078 -9.0229,3.97327 -12.5858,0.68647 -18.2439,-16.82989 -4.6401,-14.36504 -4.6811,-17.87033 -0.251,-21.46673 2.1648,-1.75741 3.6724,-2.13253 7.4628,-1.8569 3.3851,0.24617 4.75,-0.0154 4.75,-0.91058 0,-1.08958 12.8921,-7.1798 13.6435,-6.44518 1.0219,0.99914 16.3565,41.59032 16.3565,43.29639 0,3.02182 -2.5193,7.56101 -5.563,10.02321 -4.9078,3.97012 -17.3824,7.89421 -21.937,6.90063 z m 7.5,-23.82964 c 0,-0.75939 -1.536,-5.56257 -3.4133,-10.67372 -4.6893,-12.76674 -4.6883,-12.76453 -5.6937,-12.74206 -0.4911,0.011 -0.8929,0.80745 -0.8927,1.76995 3e-4,1.59737 6.4047,20.33514 7.6051,22.25056 0.8176,1.3046 2.3946,0.90634 2.3946,-0.60473 z m -379.17661,26.18245 c -5.58088,-1.72714 -7.52901,-2.76376 -7.13586,-3.79708 0.43255,-1.13687 0.0346,-1.21759 -1.98825,-0.40331 -3.56795,1.43627 -9.1434,-0.1991 -11.74898,-3.44613 -2.60973,-3.25223 -2.27503,-7.46054 1.17394,-14.76042 2.84758,-6.02699 5.46888,-7.56926 13.19153,-7.76142 3.19866,-0.0795 6.66647,-0.61901 7.70625,-1.19871 1.91312,-1.06662 4.34157,-7.68798 3.3815,-9.21995 -1.45074,-2.31493 -2.99539,-0.28597 -5.71322,7.5045 -0.63601,1.82308 -1.30215,1.71116 -10.87874,-1.82773 l -2.68846,-0.99348 1.61289,-4.14206 c 1.95532,-5.02148 6.13144,-8.82419 10.75719,-9.79535 4.8128,-1.01044 13.95323,1.86506 18.11779,5.69969 2.84933,2.62358 3.38933,3.81841 3.39073,7.50245 0.001,3.89688 -9.25204,36.5042 -10.87267,38.31278 -0.34595,0.38607 -4.08349,-0.36713 -8.30564,-1.67378 z m -2.89521,-15.80133 c 2.39646,-6.45867 2.55384,-7.84448 0.82185,-7.2371 -2.14384,0.75182 -5.75,7.04385 -5.75,10.03261 0,4.80117 2.67178,3.28559 4.92815,-2.79551 z M 327.5231,692.60314 C 323.05166,678.6362 311.41501,661.29024 297.61521,648.02147 286.21144,637.05653 277.54457,631.34554 255.06464,619.98302 233.9103,609.29051 226.21975,604.21678 217.49,595.19365 c -5.69413,-5.88549 -11.63362,-14.75141 -10.59421,-15.81405 0.31833,-0.32544 4.5355,3.37086 9.3715,8.21398 9.67925,9.69352 13.7633,12.20746 19.83625,12.21024 8.24366,0.004 12.22731,-5.63109 8.72343,-12.33926 -3.15237,-6.0352 -8.67686,-9.16924 -30.81252,-17.47992 -36.76009,-13.80131 -47.32342,-20.68701 -53.96406,-35.17642 -2.82823,-6.17098 -4.02907,-10.64016 -2.84879,-10.60231 0.47213,0.0152 3.99817,3.99322 7.83566,8.84016 10.16609,12.84031 16.83121,17.40469 25.30413,17.32869 4.25197,-0.0381 4.86239,-1.8299 2.44883,-7.18796 -2.97526,-6.60503 -10.29326,-13.79015 -24.83112,-24.38023 -14.01663,-10.21039 -20.92768,-16.85853 -23.97473,-23.06267 -2.24995,-4.58116 -3.13943,-17.01455 -1.44625,-20.21612 1.55083,-2.93242 1.90711,-2.433 2.98893,4.18978 2.66807,16.33363 13.65482,27.25816 41.72278,41.48649 10.48261,5.3139 14.50901,8.49826 23.81018,18.83084 11.07977,12.3084 21.84816,17.21022 27.49163,12.51429 2.08558,-1.7354 2.13795,-2.09697 0.90816,-6.27029 -0.94715,-3.21414 -3.10064,-6.17857 -7.85242,-10.80937 -7.08794,-6.90749 -13.04881,-10.09323 -36.04737,-19.26534 -18.28512,-7.29231 -27.17247,-13.64064 -31.95526,-22.82597 -2.2518,-4.32457 -4.30061,-14.26599 -2.94629,-14.29626 1.04815,-0.0234 5.90155,6.24646 5.90155,7.62393 0,1.78113 13.22802,13.0942 17.5,14.96661 7.98777,3.50107 12.5,0.99852 12.5,-6.93265 0,-14.20578 -17.94222,-28.30371 -40.90464,-32.14044 -26.53313,-4.43335 -46.48503,-16.23477 -65.009843,-38.45291 -13.49146,-16.18129 -25.66868,-39.02038 -39.17148,-73.46847 -5.46601,-13.94477 -11.65064,-21.09407 -31.79575,-36.7552 -6.25995,-4.86657 -10.8922104,-9.02243 -10.2939404,-9.23523 1.4604304,-0.51943 16.8214404,6.50902 21.0442304,9.62884 3.84665,2.84191 12.66207,10.99481 15.63142,14.45663 8.0422,9.37602 14.52175,19.89419 25.4429,41.3012 17.30015,33.91073 27.21543,47.32211 42.078403,56.91509 3.43883,2.21951 7.33883,4.28388 8.66667,4.58747 3.52497,0.80594 5.47498,-2.17162 4.95623,-7.56792 -0.75258,-7.8288 -5.23077,-14.1574 -21.20373,-29.9652 -10.239413,-10.13354 -15.760633,-16.405 -17.250003,-19.59396 -3.48587,-7.46382 -2.82532,-8.23717 3.05953,-3.58197 2.8875,2.28414 10.641823,7.85354 17.231823,12.37644 16.47726,11.30877 25.665,20.50462 30.62652,30.65355 2.14041,4.37827 3.89166,9.01196 3.89166,10.29709 0,3.05977 5.37654,8.14905 8.53448,8.07848 2.37836,-0.0531 2.4651,-0.29372 2.45365,-6.80483 -0.0243,-13.82009 -4.73527,-24.18544 -15.866,-34.90929 -7.14955,-6.88819 -12.91217,-10.88071 -42.463193,-29.41977 -7.57609,-4.75292 -15.00441,-10.49588 -20.62363,-15.94448 -10.58882,-10.26731 -14.76894,-18.05824 -21.0546,-39.24166 -7.16112,-24.1338 -12.08659,-38.54956 -15.08922,-44.16281 -1.59902,-2.98927 -6.27675,-9.57838 -10.39495,-14.64248 -8.46103,-10.4044 -12.00333,-15.68355 -11.12569,-16.5808 0.91986,-0.94041 10.97964,5.86195 16.16243,10.92893 9.16167,8.95694 15.83504,21.76662 24.41675,46.86846 6.29205,18.40451 12.4391,31.72371 18.43285,39.93961 6.12762,8.39939 9.05885,10.8454 17.09087,14.26168 7.924333,3.37049 10.339893,2.96868 12.959543,-2.15571 1.47772,-2.89062 1.42011,-3.1193 -1.7019,-6.75533 -1.77726,-2.06989 -8.631393,-8.61414 -15.231393,-14.5428 -17.68254,-15.88387 -23.5,-25.6518 -23.5,-39.45814 0,-4.82939 -0.64272,-6.87295 -4.11627,-13.08783 -2.59685,-4.64632 -3.76595,-7.72301 -3.16721,-8.33513 2.94477,-3.01057 8.96143,4.43045 18.27315,22.59904 7.29852,14.24054 11.57162,19.78315 18.29784,23.73402 5.099053,2.99511 6.491203,2.47966 7.263763,-2.68942 1.51074,-10.1081 -3.0864,-19.71504 -15.551273,-32.4985 -17.51623,-17.96395 -24.28782,-30.39403 -23.41743,-42.98558 0.43526,-6.29671 2.5184,-5.4609 4.98141,1.99867 2.79051,8.45143 9.24635,20.37053 13.45629,24.8437 4.64719,4.93776 10.70849,7.25478 14.38338,5.49828 4.030703,-1.92658 5.683423,-13.07845 3.483393,-23.50448 -2.116083,-10.0282 -7.670463,-19.16886 -28.956113,-47.65216 -11.41233,-15.27135 -16.02729,-26.27722 -16.0224,-38.21064 0.002,-4.16283 0.54646,-8.89999 1.21057,-10.52706 1.19151,-2.9192 1.21805,-2.88245 2.00915,2.78128 0.44093,3.15675 2.07742,8.74737 3.63665,12.4236 3.6371,8.57529 15.62304,25.62561 26.8104,38.13854 4.82104,5.39226 10.20299,12.022 11.959893,14.73274 11.84867,18.28144 16.89169,37.81021 14.42441,55.85749 -3.03866,22.22669 -2.22009,32.82992 2.90469,37.62524 2.71629,2.54168 2.83232,2.55945 4.4923,0.68811 3.6472,-4.11162 3.66717,-7.42196 0.11189,-18.54558 -14.66473,-45.88237 0.70009,-101.04417 43.19633,-155.08067 11.193,-14.23257 13.41809,-16.45262 17.80111,-17.76077 3.15415,-0.94139 4.363,-0.85793 6.68435,0.46144 4.08654,2.32267 5.11542,6.68487 4.94748,20.97615 l -0.14764,12.56426 2.27495,-2.05253 c 9.44891,-8.52509 16.69333,-14.7233 19.02494,-16.27742 2.73649,-1.824 2.75,-1.82084 2.75,0.64246 0,2.65151 -2.97071,7.58052 -9.01768,14.9622 -5.41673,6.61232 -8.29054,12.74837 -8.70695,18.59076 -0.50558,7.09354 0.43794,8.0873 7.43252,7.82832 7.32889,-0.27136 12.77655,-3.09502 20.48059,-10.61559 10.67306,-10.41887 14.584,-19.74568 9.98278,-23.8069 -4.45616,-3.93319 -9.50487,-0.29794 -14.60513,10.51622 -1.61363,3.4214 -3.36523,6.23037 -3.89246,6.24215 -1.451,0.0324 -0.01,-11.09282 2.2917,-17.693 6.09033,-17.46418 23.57403,-38.996555 38.98213,-48.009185 5.31919,-3.11133 5.51693,-0.97013 0.43987,4.76302 -12.4247,14.030315 -15.57656,29.443215 -7.24669,35.437075 2.30894,1.66143 3.09257,1.7409 6.2378,0.63258 9.36032,-3.29835 17.67456,-21.56352 22.55228,-49.544055 5.99191,-34.372012 12.3133,-49.964279 24.17146,-59.621105 5.00559,-4.076359 6.06833,-3.269634 2.28723,1.736238 -15.25301,20.193739 -18.10758,31.941238 -16.31909,67.158277 0.53009,10.43816 0.68737,22.134645 0.34949,25.992195 -1.4041,16.03073 -6.43584,27.91243 -14.69153,34.69187 -1.58096,1.29827 -1.68928,0.87394 -1.46763,-5.74907 0.17644,-5.27207 -0.13096,-7.37257 -1.17001,-7.99491 -3.12895,-1.8741 -9.11468,3.15568 -11.15047,9.3697 -1.32153,4.0338 -1.29095,4.15627 1.59621,6.3939 4.47717,3.46992 11.84252,4.50324 17.96624,2.52057 6.28498,-2.03488 9.58092,-4.29822 16.50941,-11.33709 10.6632,-10.83308 17.89682,-26.31357 18.68258,-39.982115 0.53527,-9.31126 -1.079,-16.47589 -3.69901,-16.41734 -2.464,0.0551 -7.58197,8.97867 -9.37661,16.34893 -2.40345,9.870495 -3.62694,12.590095 -5.50952,12.246725 -1.35388,-0.24694 -1.56537,-1.6393 -1.33158,-8.76651 0.44513,-13.570015 4.05784,-26.659975 14.98675,-54.30164 6.45414,-16.323958 9.21171,-24.848374 11.24172,-34.751211 l 1.64749,-8.0368162 2.72447,8.7523072 c 2.63132,8.453044 8.99667,24.925301 15.58791,40.338477 4.9166,11.497014 9.8334,29.596988 10.5992,39.018378 0.6601,8.120595 -0.097,18.548505 -1.2643,17.407555 -0.868,-0.84864 -5.0457,-13.624135 -5.8439,-17.870885 -0.398,-2.11793 -2.0604,-5.34328 -3.6941,-7.16745 -6.13359,-6.84873 -10.55382,-2.51703 -9.45155,9.26226 0.56281,6.014415 1.95377,10.694345 6.51515,21.920295 1.1073,2.72526 2.5811,6.88438 3.275,9.24249 3.4214,11.62648 24.2187,23.88155 37.4868,22.08955 8.0224,-1.08353 9.451,-5.53204 4.2572,-13.25717 -5.5081,-8.19264 -8.235,-6.96414 -7.5095,3.38311 0.5267,7.51143 -0.2715,7.61922 -5.5772,0.75312 -4.5246,-5.85525 -8.3046,-14.87712 -9.7968,-23.38208 -0.6079,-3.46443 -1.4902,-20.690365 -1.9608,-38.279845 -0.4706,-17.589485 -1.1523,-33.324252 -1.5149,-34.96615 -2.4263,-10.988071 -6.9741,-20.208243 -13.6162,-27.605597 -5.5071,-6.1333692 -2.5767,-5.9447562 4.4091,0.28379 10.3435,9.222256 17.6708,27.932418 17.7034,45.205731 0.021,10.872832 2.4613,26.160636 5.1586,32.310936 2.9688,6.7691 14.0642,24.966245 16.3438,26.804625 2.9496,2.37881 7.1838,2.83471 10.9462,1.17861 4.1896,-1.84412 6.5685,-5.2702 6.5685,-9.45969 0,-4.18068 -4.7508,-14.149465 -10.045,-21.077685 -5.1407,-6.72746 -7.3757,-10.81318 -5.9326,-10.84543 2.4605,-0.055 12.9217,7.47241 19.2536,13.85406 8.0578,8.121115 14.9434,18.161675 21.7879,31.770965 5.6385,11.21129 7.2278,17.29633 4.5333,17.35654 -2.024,0.0452 -6.7545,-4.55397 -10.1691,-9.88668 -2.0566,-3.21189 -2.9251,-3.80874 -4.724,-3.24644 -2.7157,0.8489 -5.7116,4.25163 -5.6821,6.45368 0.131,9.77986 20.6363,27.73598 31.7681,27.81881 3.2755,0.0244 3.9217,-0.38697 5.5187,-3.51281 3.8247,-7.48613 0.1631,-16.82401 -12.3013,-31.37037 -5.7446,-6.70417 -7.1122,-9.19581 -5.0726,-9.24139 2.7172,-0.0607 6.5597,2.46329 15.3022,10.05167 5.3165,4.61471 9.9203,8.3847 10.2305,8.37777 0.3103,-0.007 0.2685,-5.53515 -0.093,-12.28493 -0.5952,-11.12021 -0.4606,-12.72025 1.4332,-17.04383 1.1495,-2.62434 2.8657,-5.08653 3.8139,-5.47156 2.5537,-1.03702 11.2672,2.20606 13.9882,5.20629 14.7897,16.30711 31.172,40.26205 40.8641,59.7531 11.0699,22.26211 15.6601,37.68843 17.6989,59.48195 1.3702,14.64586 -0.4338,30.73581 -5.1904,46.29465 -3.4057,11.14027 -3.5365,12.5514 -1.5197,16.40632 3.0028,5.7396 5.8758,4.54466 9.1102,-3.7891 1.6598,-4.27649 1.611,-15.81997 -0.1662,-39.33138 -0.3937,-5.20932 -0.1673,-11.19018 0.5872,-15.51312 1.18,-6.76 5.9968,-20.97497 8.5388,-25.19868 5.8924,-9.79067 11.2113,-17.33776 16.4688,-23.36802 8.3028,-9.52304 13.5164,-16.49098 20.5282,-27.43573 6.5554,-10.23236 9.0627,-16.17243 10.8626,-25.73437 l 1.2347,-6.55896 1.3465,7.21991 c 2.7948,14.98578 -2.5236,29.0209 -19.8519,52.38813 -21.1539,28.52606 -25.1219,36.63952 -25.1219,51.36744 0,12.95219 3.51,17.3239 11.1936,13.94178 6.0463,-2.66142 10.759,-8.70421 16.9862,-21.78045 6.0675,-12.74062 7.4163,-14.67354 8.4235,-12.07123 0.8709,2.24998 -2.4118,17.34961 -4.802,22.08819 -1.139,2.25811 -7.879,10.76731 -14.9778,18.90932 -15.6189,17.91421 -18.8235,23.64249 -18.8235,33.64763 0,8.06831 0.9367,8.88125 6.698,5.81328 6.4628,-3.4415 11.6756,-10.31585 19.2101,-25.33304 6.7264,-13.4068 14.036,-23.90076 15.6049,-22.403 0.9661,0.92235 -1.0607,9.27219 -5.1995,21.42017 -1.8882,5.5422 -4.5101,14.08061 -5.8263,18.97424 -1.3252,4.92658 -3.5429,10.43051 -4.9693,12.33245 -1.4168,1.88923 -6.807,6.05432 -11.9781,9.25576 -11.1325,6.89213 -15.9127,11.37197 -17.5868,16.4818 -1.1818,3.60752 -1.1088,3.85403 1.9251,6.49698 1.7344,1.51096 4.1589,2.72033 5.3877,2.6875 4.4693,-0.11937 12.5516,-5.11736 18.6941,-11.56011 6.6836,-7.01017 12.3609,-17.61607 17.5254,-32.7395 15.1011,-44.22139 21.5397,-56.05377 37.0443,-68.07758 12.2076,-9.46694 11.912,-6.65894 -1.0285,9.77276 -9.9803,12.67285 -11.721,15.7641 -17.033,30.24912 -3.2064,8.74324 -4.4681,13.67848 -4.4681,17.47757 0,6.37093 -3.0893,18.0823 -6.6582,25.24121 -5.3799,10.79144 -20.2241,26.65021 -34.2388,36.57891 -28.1872,19.96932 -34.4224,24.89876 -44.6886,35.33003 -14.947,15.18736 -19.3974,24.40513 -19.4088,40.19988 0,7.03959 0.1746,7.74609 1.9596,7.70621 3.4687,-0.0775 8.7966,-5.82732 9.5506,-10.30687 0.3746,-2.22564 2.2466,-7.21081 4.1599,-11.07814 4.5031,-9.10167 12.8616,-17.55638 28.6106,-28.93986 6.7175,-4.85548 14.8012,-10.96219 17.9637,-13.57047 3.1625,-2.60829 5.75,-4.18662 5.75,-3.50742 0,0.67921 -1.6388,4.23979 -3.6417,7.9124 -2.6812,4.9162 -7.4056,10.46242 -17.9116,21.02721 -16.0648,16.15468 -19.4555,21.2678 -19.4314,29.30231 0.021,7.13855 0.9464,8.06733 7.5173,7.54822 2.9538,-0.23334 14.1696,-10.15395 19.9674,-17.66163 9.6612,-12.51026 14.3721,-20.51594 29.4569,-50.05797 16.4677,-32.25027 30.8476,-49.57805 49.4996,-59.64685 7.3596,-3.9729 10.6043,-5.03814 10.4893,-3.44369 -0.03,0.41317 -5.2369,4.91703 -11.5714,10.00858 -12.0672,9.69943 -20.8215,18.54503 -25.0054,25.26631 -1.366,2.19445 -4.8831,10.21802 -7.8158,17.83018 -14.2671,37.03263 -27.7904,60.60958 -45.0556,78.55196 -13.9001,14.44519 -29.6126,24.18267 -45.9976,28.50598 -4.4,1.16097 -11.15,2.93532 -15,3.94299 -8.8142,2.30699 -20.8598,8.78315 -26.3174,14.14929 -5.7268,5.63074 -9.1826,12.80389 -9.1826,19.05998 0,4.009 0.4321,5.26954 2.2225,6.48358 1.2224,0.82887 3.0273,1.48905 4.0109,1.46707 5.9049,-0.13195 18.4316,-10.42354 24.4538,-20.09059 1.5471,-2.48333 3.213,-4.52489 3.7021,-4.5368 1.4997,-0.0365 -0.152,9.61621 -2.4121,14.0969 -4.5297,8.98018 -17.1894,17.85991 -37.4772,26.28723 -21.7658,9.04127 -32.6698,17.35816 -37.8122,28.84068 l -1.8122,4.04649 2.7429,2.29802 c 6.122,5.12914 15.0854,0.16756 30.7381,-17.01475 9.3386,-10.25123 10.3018,-11.00422 20.9659,-16.3905 13.2069,-6.67068 18.8333,-10.68155 27.887,-19.87968 7.3284,-7.44522 13.28,-17.60148 14.3874,-24.55147 1.0867,-6.81974 2.6782,-3.2984 2.2597,4.99947 -0.7438,14.74664 -7.1929,22.77436 -36.8566,45.87877 -4.125,3.21288 -9.2634,7.68812 -11.4188,9.94499 -3.8495,4.03089 -3.8977,4.17315 -2.7279,8.05139 1.5144,5.02093 3.9185,5.78273 9.4239,2.98635 4.4945,-2.28289 15.4612,-11.85415 22.7554,-19.86005 2.4298,-2.6668 4.7415,-4.85596 5.1372,-4.8648 1.2605,-0.0282 -3.4025,10.4074 -6.7701,15.15129 -9.3701,13.19932 -19.0361,19.20564 -52.8997,32.87098 -17.7851,7.17703 -24.9765,11.20497 -27.9582,15.65955 -6.2446,9.32934 -0.074,16.9517 11.2168,13.85626 3.6892,-1.01138 6.4479,-3.12675 14.7578,-11.31632 5.6212,-5.53983 10.5046,-10.07877 10.852,-10.08653 1.4549,-0.0325 0.3805,2.5244 -3.7432,8.90853 -8.8932,13.768 -20.3324,22.91948 -49.1252,39.30053 -19.7573,11.2405 -27.8758,16.35615 -35.5,22.36939 -14.8225,11.69055 -23.21733,23.44527 -27.54104,38.56398 -3.14152,10.98498 -4.45812,13.54734 -6.98996,13.60392 -1.79522,0.0401 -2.58105,-0.78287 -3.50588,-3.67165 z m 4.49034,-7.02082 c 1.21562,-4.87056 10.60248,-22.90107 17.02914,-32.71007 3.4743,-5.30263 12.3319,-17.65057 19.6838,-27.43986 18.75,-24.96642 19.6046,-26.27642 21.1849,-32.4734 1.8247,-7.15498 0.832,-9.4223 -3.6708,-8.38411 -8.2028,1.89126 -22.4141,15.00803 -24.7447,22.83897 -1.5193,5.1052 -0.9469,5.9099 2.5288,3.55486 4.8984,-3.319 4.5932,-0.22343 -0.5502,5.58104 -10.3846,11.71943 -21.45527,31.24774 -27.48942,48.49059 -2.45675,7.02026 -4.50652,9.79082 -6.66622,9.01033 -0.76799,-0.27755 -2.87474,-4.2295 -4.68166,-8.78213 -6.20326,-15.62939 -15.35515,-33.04146 -20.55482,-39.10689 -0.56224,-0.65584 -1.65578,-1.98141 -2.43009,-2.94569 -0.77431,-0.96428 -3.18931,-3.58396 -5.36666,-5.8215 -4.53761,-4.66304 -4.31917,-7.12224 0.42418,-4.77536 1.6699,0.82623 3.22139,1.31288 3.44776,1.08145 0.77476,-0.79207 -1.91291,-7.19059 -4.74249,-11.29038 -4.9867,-7.22528 -14.20963,-13.65723 -22.06143,-15.38535 -2.30315,-0.50691 -2.79928,-0.22388 -3.32917,1.89922 -0.34248,1.3722 -0.17773,4.09648 0.36611,6.05394 1.20898,4.35157 15.40375,25.23213 26.21745,38.566 15.44077,19.03928 25.98207,36.23362 30.39031,49.57088 1.87539,5.67404 3.95904,6.69918 5.01521,2.46746 z m 0.95839,-23.10469 c 3.40254,-8.52311 7.64678,-17.27602 13.69635,-28.24608 3.2577,-5.90737 5.712,-10.94702 5.454,-11.19925 -0.9927,-0.97055 -5.5073,1.01261 -10.18391,4.47364 -2.68304,1.98562 -6.54573,4.55178 -8.58376,5.70257 l -3.70549,2.09236 -6.29451,-4.22845 c -7.30531,-4.90747 -12.06803,-7.35646 -14.21344,-7.30851 -1.14877,0.0257 -0.71028,1.4152 1.80181,5.70973 7.67669,13.12364 13.82961,25.49263 17.71125,35.60422 1.263,3.29012 2.18876,2.7326 4.3177,-2.60023 z m 4.91307,-35.95729 c 6.97238,-4.62702 13.67508,-10.39872 13.67508,-11.77551 0,-0.37336 -1.35,-0.91866 -3,-1.21179 -2.3908,-0.42475 -3,-1.05002 -3,-3.0794 0,-3.63578 4.2236,-5.61057 6.9164,-3.23382 1.8317,1.61673 1.9698,1.60924 2.8657,-0.15534 1.9458,-3.83258 2.3334,-7.3851 0.8021,-7.35088 -3.6938,0.0825 -7.6398,2.94112 -15.74195,11.40374 -4.81481,5.02902 -9.3365,9.15636 -10.04821,9.17187 -0.7117,0.0155 -5.27492,-3.91193 -10.14047,-8.72767 -8.10461,-8.02165 -14.60345,-12.10211 -16.38076,-10.28508 -0.64246,0.65681 1.4882,8.57285 2.30254,8.55465 0.27228,-0.006 1.54081,-0.71964 2.81896,-1.58568 2.72324,-1.84518 5.27512,-1.21217 6.15027,1.52562 0.82737,2.58833 -1.19109,4.88625 -4.35409,4.95693 l -2.56464,0.0573 2.93709,3.0498 c 2.42039,2.51322 18.11345,13.47976 19.25308,13.45429 0.18359,-0.004 3.5626,-2.15017 7.5089,-4.76904 z m -1.65489,-16.18546 c 7.91407,-8.08233 19.75377,-16.96661 36.13427,-27.11431 22.6827,-14.05198 28.0249,-18.06466 28.9976,-21.78101 0.624,-2.38394 0.5091,-3.33203 -0.4291,-3.54137 -1.6222,-0.36196 -21.0574,9.93052 -32.8728,17.40874 -12.7638,8.07851 -18.9482,13.15447 -28.23998,23.1782 -4.47381,4.82625 -8.51206,8.78343 -8.97391,8.79375 -0.46185,0.0103 -3.97765,-3.09762 -7.8129,-6.90652 -12.87878,-12.79033 -29.54215,-23.95218 -51.47318,-34.47899 -12.2448,-5.87747 -13.49504,-6.10292 -12.5305,-2.25965 1.26895,5.05618 2.68981,6.09892 30.16824,22.13989 16.95004,9.89485 28.42952,18.06029 35.86226,25.50909 2.75,2.75594 5.0765,5.00976 5.17,5.00848 0.0935,-0.001 2.7935,-2.68162 6,-5.9563 z m -2.10709,-12.25925 c 1.6154,-1.7576 6.98709,-6.55716 11.93706,-10.66569 4.95,-4.10851 11.3339,-9.93016 14.1864,-12.93699 5.3551,-5.64485 10.3136,-14.28759 10.3136,-17.97676 0,-3.07249 -3.3294,-2.60803 -7.2342,1.00918 l -3.2658,3.02527 2.3069,1.59271 c 2.6422,1.82421 2.6149,5.11063 -0.057,6.84518 -2.2573,1.46549 -5.1248,-0.14105 -5.5695,-3.12043 -0.1758,-1.1774 -0.6896,-2.13246 -1.1419,-2.12235 -1.7607,0.0394 -8.8941,6.99768 -16.46397,16.05989 -4.35769,5.21679 -8.24699,9.49231 -8.64289,9.50116 -0.3959,0.009 -3.98484,-3.62346 -7.97542,-8.07178 -7.24316,-8.074 -15.88403,-16.33557 -17.09788,-16.34736 -0.35288,-0.003 -0.92223,1.11819 -1.26523,2.49248 -0.83657,3.35186 -5.35459,4.68166 -7.24877,2.13354 -1.78453,-2.40061 -1.70591,-3.05671 0.65559,-5.47098 2.64538,-2.70449 2.5412,-3.09097 -1.66849,-6.19012 -4.20579,-3.09628 -5.33151,-2.73526 -5.33151,1.70979 0,6.23584 8.06651,15.96414 22.87677,27.58965 3.64278,2.85944 8.64823,7.19095 11.12323,9.62556 2.475,2.43461 4.97831,4.44618 5.56291,4.47014 0.5846,0.0239 2.3846,-1.39448 4,-3.15209 z m 4.93709,-24.10197 c 14.01137,-14.4715 41.81777,-34.69556 59.49997,-43.2754 5.225,-2.53529 11.975,-6.21119 15,-8.16866 7.8501,-5.07978 17.3851,-15.49446 12.75,-13.92624 -15.4035,5.2115 -31.2034,12.87104 -42.25,20.48206 -3.85,2.65262 -11.725,7.54581 -17.5,10.87374 -12.8774,7.42081 -20.526,12.92107 -29.30785,21.07578 -3.70259,3.43817 -7.1352,6.26023 -7.62802,6.27125 -0.49282,0.011 -2.39176,-1.83506 -4.21986,-4.10237 -5.65732,-7.01653 -47.2705,-32.45232 -68.68846,-41.98538 -7.75867,-3.45336 -22.27922,-8.78516 -23.83093,-8.75048 -1.11597,0.0249 0.10132,2.41352 2.72036,5.33792 1.85212,2.06805 9.59001,6.86999 19.75,12.25635 32.18116,17.06096 53.69954,31.47213 67.67797,45.32491 3.83525,3.80077 7.21025,6.89672 7.5,6.87986 0.28975,-0.0169 4.12682,-3.74885 8.52682,-8.29334 z m -54.44432,-14.74625 c -3.49685,-9.20446 -5.23475,-11.14851 -13.76177,-15.3942 -4.37104,-2.1764 -9.82533,-4.21541 -12.12063,-4.53115 -4.17056,-0.57371 -4.17328,-0.57198 -4.17328,2.64025 0,3.92562 4.81036,10.84432 9.89304,14.22909 1.98383,1.32111 7.65696,4.57172 12.60696,7.22355 10.32797,5.53296 11.0828,5.11661 7.55568,-4.16754 z m 96.94429,2.9182 c 4.0024,-2.28944 7.4579,-4.16666 7.679,-4.1716 0.7648,-0.0171 6.8342,-4.62049 10.1586,-7.70494 3.7197,-3.45109 7.1624,-9.52784 7.1624,-12.64228 0,-1.48651 -0.651,-2.02529 -2.4,-1.98621 -3.4933,0.0781 -18.6756,7.0049 -21.7479,9.92232 -2.9879,2.83733 -10.3346,20.79461 -8.4906,20.7534 0.1989,-0.004 3.6362,-1.88126 7.6385,-4.17069 z M 336.03164,557.413 c 2.88863,-2.67705 11.05174,-8.56555 18.14024,-13.08554 20.8852,-13.31753 27.3203,-19.22699 32.445,-29.79486 4.9695,-10.24765 4.507,-10.36683 -10.5569,-2.72042 -11.6817,5.92962 -20.3881,12.7655 -34.32444,26.95019 -6.22846,6.33942 -11.88967,11.53886 -12.58048,11.5543 -0.6908,0.0154 -2.7883,-2.07519 -4.66109,-4.64584 -4.59247,-6.30376 -13.81353,-14.98396 -23.0587,-21.70619 -6.94111,-5.04692 -26.31608,-15.44047 -28.68446,-15.38754 -1.53203,0.0342 0.19972,6.10505 3.39673,11.90757 1.57237,2.85384 5.4155,7.44103 8.5403,10.19376 4.65477,4.10053 18.29635,13.07675 26.65085,17.53637 3.61184,1.92799 14.77305,9.99018 16.62631,12.00985 1.04774,1.14182 2.10965,2.07147 2.35979,2.06588 0.25014,-0.006 2.81823,-2.20048 5.70685,-4.87753 z m 36.34724,-33.00781 c -1.9497,-1.53523 -2.1345,-2.20937 -1.2803,-4.67114 1.9495,-5.61863 8.9884,-3.88362 8.2837,2.04188 -0.4414,3.71141 -3.9542,5.03022 -7.0034,2.62926 z m -90.10481,2.33983 c -0.39273,-0.38397 -0.71406,-2.18954 -0.71406,-4.01239 0,-2.70582 0.46136,-3.44039 2.51299,-4.00116 3.47388,-0.94951 5.65981,1.07156 5.28808,4.88928 -0.25604,2.62948 -0.75512,3.14652 -3.33701,3.45713 -1.66977,0.20088 -3.35727,0.0511 -3.75,-0.33286 z m 57.78594,8.54512 c 5.49997,-5.49944 12.95977,-12.17353 16.57727,-14.83131 18.8879,-13.87694 49.5478,-31.08681 66.4151,-37.27984 14.6331,-5.37267 18.5223,-7.42502 24.164,-12.75144 4.8358,-4.56556 10.3715,-14.98089 7.9333,-14.9264 -0.3608,0.008 -13.0732,5.93809 -28.0897,13.10314 -2.75,1.31214 -7.25,3.45434 -10,4.76043 -28.1589,13.37384 -55.8199,28.76101 -74.19503,41.27288 -6.15729,4.19257 -11.51234,7.62996 -11.90011,7.63863 -0.38778,0.009 -4.125,-2.0901 -8.30494,-4.66391 -17.05348,-10.50076 -58.54296,-31.52431 -81.59989,-41.3483 -2.75,-1.17171 -11.48051,-5.07631 -19.40113,-8.67688 -7.92063,-3.60059 -14.78313,-6.53797 -15.25,-6.52754 -1.57564,0.0352 -0.86351,3.59721 1.75996,8.80321 3.35724,6.66209 9.5643,10.58048 25.81679,16.29762 37.73926,13.27553 69.15051,31.8579 90.4549,53.51159 3.04455,3.09447 5.55443,5.62423 5.57751,5.6217 0.0231,-0.003 4.54197,-4.50413 10.04197,-10.00358 z m -71.98118,-19.70448 c -4.71446,-11.07307 -5.64543,-12.22553 -12.23314,-15.14365 -13.81727,-6.12058 -21.96582,-9.12777 -25.98179,-9.58848 -3.78041,-0.43369 -4.30389,-0.26055 -4.30389,1.42349 0,2.27891 9.09298,11.13723 17.5,17.04837 5.5396,3.895 25.70764,14.34072 27.60639,14.29829 0.45475,-0.0102 -0.70965,-3.62728 -2.58757,-8.03802 z m 130.27245,1.35828 c 16.9674,-8.8014 32.4254,-20.70576 36.1489,-27.83871 3.1562,-6.04627 -1.7475,-4.92219 -24.5666,5.63139 l -11.631,5.37922 -3.7961,8.16264 c -4.049,8.70661 -5.4578,12.69978 -4.4726,12.67777 0.3348,-0.007 4.0776,-1.81302 8.3174,-4.01231 z m -56.07005,-8.11741 c 3.93725,-2.69356 3.99255,-2.81538 3.51765,-7.74761 -0.6855,-7.11842 0.3922,-11.5365 3.6942,-15.1451 2.4539,-2.68175 3.5714,-3.14631 7.7181,-3.20867 2.6669,-0.0401 5.9738,0.54505 7.3488,1.30035 3.663,2.01208 4.7742,1.73072 6.5003,-1.64588 8.4121,-16.45516 -1.0518,-40.26765 -19.4112,-48.84131 l -6.5891,-3.07706 -14.49997,0.60418 c -7.975,0.3323 -16.10163,1.07062 -18.05917,1.64072 -8.92978,2.60061 -18.95585,12.73077 -23.08506,23.32474 -2.92209,7.49696 -3.16262,19.65328 -0.52306,26.43549 1.94996,5.01034 3.65864,5.74573 7.10842,3.05936 2.89853,-2.25711 10.76021,-2.12472 13.84541,0.23315 3.94714,3.01662 6.09087,9.67685 5.26032,16.34296 l -0.69376,5.5682 5.32345,2.41334 c 7.26836,3.29505 16.65595,2.77171 22.54467,-1.25686 z m -29.29496,-30.12229 c -0.54931,-0.53703 -4.49242,-1.79189 -8.76248,-2.78856 -4.27005,-0.99668 -8.24815,-2.10069 -8.84021,-2.45338 -1.7542,-1.04496 -0.27191,-11.73444 2.4457,-17.637 2.54311,-5.52357 10.58746,-14.54757 14.00253,-15.70779 1.06124,-0.36054 2.43887,-0.15756 3.06141,0.45107 0.84251,0.82368 -0.11269,2.19823 -3.73629,5.37657 -8.12041,7.12257 -10.9944,16.82943 -6.27967,21.20949 1.27449,1.18402 4.44798,3.83468 7.0522,5.89036 4.41515,3.48516 5.36595,5.45822 3.03055,6.28887 -0.53625,0.19074 -1.42443,-0.0926 -1.97374,-0.62963 z m 31.57371,-1.27727 c 0,-1.62223 1.7367,-3.46521 9.4941,-10.07556 4.4966,-3.83163 4.6821,-4.19227 4.0818,-7.93298 -0.3459,-2.15537 -1.4972,-5.60155 -2.5585,-7.65818 -1.8867,-3.65605 -7.258,-8.87184 -9.0941,-8.83081 -0.5078,0.0113 -0.9233,-0.87936 -0.9233,-1.97936 0,-2.77771 2.0094,-2.54516 6.7469,0.78086 9.2335,6.48234 13.8053,16.04749 13.3544,27.93979 -0.094,2.4751 -0.627,2.80342 -7.2312,4.45311 -3.9215,0.97955 -8.3992,2.46568 -9.9504,3.30251 -3.5381,1.9087 -3.9197,1.90875 -3.9197,6.2e-4 z m -40.49997,20.95048 c 0,-2.52893 -0.39041,-2.99128 -2.4863,-2.94444 -1.60345,0.0358 -2.60998,0.70047 -2.83458,1.87175 -0.58425,3.04684 0.65315,4.83982 3.06641,4.44321 1.76716,-0.29043 2.25447,-1.01898 2.25447,-3.37052 z m 57.38537,1.30967 c 0.917,-0.60129 1.1641,-1.78471 0.7309,-3.50103 -0.4852,-1.92245 -1.2957,-2.57837 -3.1353,-2.53726 -1.3646,0.0305 -2.481,0.24364 -2.481,0.47365 0,0.23002 -0.2509,1.0776 -0.5575,1.88351 -0.3066,0.80593 0.1755,2.18195 1.0714,3.05785 1.8544,1.81293 2.4315,1.89522 4.3715,0.62328 z M 283.61087,483.5336 c -2.33589,-9.09655 -2.68459,-21.45058 -0.85645,-30.34243 1.01267,-4.9255 0.95679,-6.30285 -0.36729,-9.05199 l -1.5617,-3.24252 -3.07943,6.83961 c -1.69368,3.76179 -3.9901,8.1389 -5.10316,9.72692 -2.13395,3.04454 -1.86872,4.15808 0.97526,4.09453 4.23237,-0.0946 6.84135,17.69028 3.33991,22.76752 -0.8811,1.27764 -1.41084,2.50987 -1.1772,2.73829 0.82042,0.80207 9.28257,4.96405 9.58006,4.71179 0.16547,-0.14032 -0.62203,-3.84908 -1.75,-8.24172 z m 100.94911,1.15025 c 0,-0.19857 -0.675,-1.96145 -1.5,-3.91752 -1.9509,-4.6256 -1.9002,-10.1428 0.1519,-16.54281 1.388,-4.32876 2.0403,-5.16042 4.0834,-5.20607 1.3372,-0.0299 2.2814,-0.41382 2.098,-0.85319 -2.0152,-4.82968 -9.2342,-17.98735 -9.8611,-17.97334 -0.4494,0.01 -1.3134,1.53313 -1.9199,3.38462 -0.8541,2.60688 -0.7621,4.80454 0.4076,9.7409 2.4834,10.47995 1.7035,19.48729 -3.0144,34.81319 l -0.7245,2.35374 5.1395,-2.71925 c 2.8267,-1.49558 5.1395,-2.88171 5.1395,-3.08027 z m -114.5714,-5.61646 c 2.16566,-2.21405 1.96673,-5.70026 -0.50115,-8.78251 -3.57209,-4.46135 -9.92742,-2.66391 -9.92742,2.80771 0,6.01076 6.66072,9.82686 10.42857,5.9748 z m -7.32939,-3.51478 c -1.14792,-3.06245 -0.31334,-4.743 2.38536,-4.80331 2.93978,-0.0657 4.85542,2.24502 4.03069,4.86194 -0.92009,2.91951 -5.31479,2.87936 -6.41605,-0.0586 z m 135.68449,0.46794 c 2.7791,-2.48742 3.4959,-6.484 1.6325,-9.10265 -2.0318,-2.85544 -5.9071,-2.65178 -8.9616,0.47098 -3.0722,3.14079 -3.1718,7.00059 -0.2321,8.99394 2.8901,1.95973 5.0844,1.8546 7.5612,-0.36227 z m -6.117,-1.77997 c -1.3584,-1.32805 -0.6068,-5.28149 1.1952,-6.28611 2.8804,-1.60591 5.6112,0.77969 4.7665,4.16396 -0.4811,1.92788 -1.31,2.68487 -2.9808,2.7222 -1.2728,0.0285 -2.6143,-0.24158 -2.9809,-0.60005 z M 258.77655,462.57185 c 7.1908,-3.67881 12.24611,-9.40757 14.22702,-16.12231 2.71518,-9.20367 1.89089,-24.21061 -1.94083,-35.33472 -1.78651,-5.18654 -10.14047,-21.30414 -11.25004,-21.70513 -0.68898,-0.24899 -1.88708,-0.19509 -2.66244,0.11979 -3.00185,1.219 -2.67765,5.49631 1.36098,17.95591 5.12587,15.81385 6.34892,23.14301 4.87617,29.22045 -1.30299,5.37685 -2.74268,7.62653 -4.05781,6.34079 -0.55358,-0.54121 -0.44734,-2.63471 0.26886,-5.2984 0.66798,-2.48431 0.93114,-6.83891 0.60378,-9.99101 -0.78671,-7.57504 -4.96827,-20.35502 -8.33158,-25.4635 -4.67729,-7.10429 -5.30997,-4.91196 -1.64661,5.70581 7.86453,22.79433 4.67177,36.73524 -8.90893,38.90016 -5.23119,0.83391 -13.77246,-0.74168 -18.23605,-3.36398 -4.68597,-2.75295 -5.95151,-2.21192 -8.8568,3.78637 -1.46424,3.0231 -2.66226,5.93706 -2.66226,6.47546 0,1.02115 5.68773,5.48593 10,7.84985 10.24646,5.61693 27.22029,6.03859 37.21654,0.92449 z m 174.90573,-3.26061 c 5.1901,-2.18542 14.6208,-8.54533 15.2937,-10.31372 0.2421,-0.63639 -0.9651,-3.80523 -2.6826,-7.04188 l -3.1228,-5.88482 -6.2496,2.97339 c -12.5049,5.94941 -23.9065,5.12039 -28.1645,-2.04785 -2.1465,-3.61354 -2.2809,-4.70235 -1.7909,-14.51256 0.4229,-8.46711 1.1466,-12.29271 3.5886,-18.97034 1.6824,-4.60042 2.8332,-8.58505 2.5573,-8.85473 -1.8751,-1.83325 -9.9318,13.3657 -11.6004,21.88418 -1.0521,5.37103 -0.9375,16.26763 0.2212,21.04372 0.1802,0.74298 -0.2412,1.57197 -0.9365,1.84221 -0.7451,0.28957 -1.9223,-1.06882 -2.8667,-3.30809 -2.3626,-5.6016 -1.2949,-14.61196 3.5212,-29.71802 4.3741,-13.7196 5.0883,-19.22581 2.6097,-20.12155 -2.7158,-0.98148 -3.9965,0.39412 -8.6826,9.32598 -8.7184,16.61793 -11.6902,32.68417 -8.4009,45.41741 2.6462,10.24407 8.1282,16.31206 17.7875,19.68903 6.7128,2.34684 21.7457,1.61783 28.9183,-1.40236 z m 39.9363,-11.12606 c 7.9985,-8.21769 11.3119,-13.57836 12.9595,-20.96687 1.0454,-4.68819 0.06,-8.42082 -2.2089,-8.37012 -2.0084,0.0449 -7.8289,5.24587 -10.2834,9.18892 -2.0454,3.2859 -10.3889,22.85639 -12.2261,28.67758 -1.0284,3.25852 3.44,0.0172 11.7589,-8.52951 z m -275.05857,14.00811 c 0,-0.57294 -1.41219,-4.02888 -3.1382,-7.67987 -1.72601,-3.651 -3.9295,-8.91826 -4.89665,-11.70503 -2.70037,-7.78097 -6.47928,-12.96054 -11.10038,-15.21479 -5.00077,-2.43945 -6.16159,-1.42296 -5.54118,4.85226 0.81364,8.22972 9.03453,20.50272 18.36684,27.41993 4.76961,3.53528 6.30957,4.10335 6.30957,2.3275 z m 12.43842,-15.45179 c 3.35751,-4.86856 2.71828,-13.84521 -0.98004,-13.76256 -1.73873,0.0388 -9.66517,9.09211 -9.19796,10.50553 0.41923,1.26825 6.49477,5.55488 7.83076,5.52502 0.43748,-0.01 1.49373,-1.03037 2.34724,-2.26799 z m 243.98295,-4.76819 c 2.0161,-0.88744 3.9302,-2.30891 4.2536,-3.15883 0.8956,-2.35402 -1.1459,-5.87371 -5.1089,-8.80789 -2.7902,-2.06577 -3.874,-2.38534 -4.9577,-1.46173 -2.8122,2.39677 -2.4538,9.91336 0.6592,13.82522 1.1968,1.50397 0.7591,1.53767 5.1538,-0.39677 z m -78.948,-12.65129 c 5.2919,-10.65506 10.3295,-23.77245 17.8816,-46.56259 3.0222,-9.11997 7.8259,-22.24331 10.6749,-29.16299 2.849,-6.91967 8.5376,-20.75625 12.6414,-30.74796 8.9558,-21.80539 16.5419,-44.1504 15.7147,-46.2877 -1.0001,-2.58385 -3.7566,-1.6545 -6.1333,2.06784 -1.236,1.93584 -7.6114,17.48524 -14.1675,34.55422 -13.2574,34.51567 -26.4,67.9322 -36.6107,93.08624 -9.0579,22.31415 -10.4745,26.03516 -10.4745,27.51318 0,0.96577 4.3738,4.44505 5.74,4.56601 0.132,0.0116 2.262,-4.05013 4.7334,-9.02625 z m -83.40763,8.77576 c 2.47459,-1.37965 2.47188,-4.86843 -0.008,-10.22554 -3.61886,-7.81773 -31.03895,-75.45259 -42.08142,-103.79873 -3.95316,-10.1478 -11.31525,-29.25221 -13.39757,-34.76629 -2.3265,-6.16069 -5.80541,-10.31535 -7.91891,-9.45709 -2.61267,1.06095 -2.01357,4.79952 2.94853,18.39987 4.13449,11.33198 20.80152,52.45164 26.40478,65.14392 1.20218,2.72313 4.87986,12.99095 8.17262,22.81737 5.93501,17.71154 11.79453,32.69657 17.64363,45.1215 4.04492,8.59238 4.41436,8.89582 8.23628,6.765 z m -89.45571,-3.48493 c 2.80528,-2.86796 3.00873,-7.81927 0.33961,-8.26479 -2.57496,-0.4298 -8.49703,4.33913 -8.10462,6.5265 0.87489,4.87678 4.00887,5.57836 7.76501,1.73829 z m 260.81854,-4.88065 c 0.8643,-0.8836 1.5714,-2.17096 1.5714,-2.8608 0,-1.87227 -4.1207,-5.26841 -7.25,-5.97516 -2.6102,-0.58951 -2.75,-0.44131 -2.75,2.91475 0,2.62874 0.676,4.05242 2.6349,5.54953 3.1614,2.41611 3.7566,2.4543 5.7937,0.37168 z m -158.57963,2.36511 2.07051,-1.79627 -3.00515,-10.43285 c -6.48684,-22.52012 -6.99196,-23.93701 -8.70767,-24.42559 -3.86231,-1.09984 -4.79725,-2.20435 -6.70663,-7.92301 -2.4714,-7.40192 -4.21535,-9.69388 -6.13268,-8.05979 -0.75203,0.64093 -1.36732,1.81319 -1.36732,2.60501 0,3.134 15.37259,48.15649 17.30387,50.67875 1.32824,1.73468 4.11817,1.45921 6.54507,-0.64625 z m 59.24013,-7.57381 c 1.6093,-4.16096 5.6839,-16.09971 9.0546,-26.53056 5.663,-17.525 6.0047,-19.08612 4.4995,-20.55769 -2.2514,-2.20112 -3.6324,-0.59289 -6.1964,7.21632 -1.6816,5.1214 -2.6331,6.53789 -5.2562,7.82497 -3.5107,1.72255 -4.9942,5.45564 -10.7373,27.01971 -2.6907,10.1033 -2.7104,10.37402 -0.8537,11.76261 4.0494,3.02849 6.3426,1.40088 9.4895,-6.73536 z m -128.48877,6.10595 c 2.14802,-1.48228 3.3997,-5.24673 3.3997,-10.22468 0,-5.2788 -2.50854,-13.02992 -4.20467,-12.99202 -1.31297,0.0293 -11.57893,3.11594 -15.04533,4.52358 -2.21427,0.89917 -2.75,1.7457 -2.75,4.34536 0,7.61863 13.38719,17.94514 18.6003,14.34776 z m 195.52757,-5.02585 c 6.0062,-2.66669 11.8721,-10.42942 11.8721,-15.71103 0,-2.08741 -7.0952,-4.72409 -14.6714,-5.45207 -5.7473,-0.55226 -5.5243,-0.81154 -7.2635,8.44231 -1.4958,7.9585 0.9437,14.19146 5.5628,14.21277 0.6203,0.003 2.6453,-0.66853 4.5,-1.49198 z m -117.64047,-2.19933 c -2.39423,-11.5342 -9.41986,-31.70053 -11.2374,-32.25577 -2.11813,-0.64705 -1.41084,2.77449 3.34512,16.18213 2.51631,7.09377 5.0623,14.34938 5.65777,16.12357 0.59547,1.77419 1.49293,3.21664 1.99435,3.20543 0.50142,-0.0112 0.60949,-1.47611 0.24016,-3.25536 z m 39.70777,-15.1088 c 3.9753,-11.50834 5.5422,-17.31496 4.8542,-17.98763 -0.5588,-0.54633 -1.2853,-0.71806 -1.6144,-0.38162 -0.9453,0.96644 -7.2703,19.49086 -8.9855,26.31651 -0.8552,3.40304 -1.8034,7.03365 -2.1071,8.06801 -0.3636,1.23829 -0.1193,1.72667 0.7152,1.42984 0.6971,-0.24793 3.909,-8.09824 7.1376,-17.44511 z m -15.91571,14.67757 c 2.25211,-1.25561 3.14219,-3.55483 6.81491,-17.60392 3.7185,-14.22425 5.9757,-29.21785 4.8431,-32.17143 -0.4713,-1.22908 -2.7303,-3.14859 -5.0201,-4.26557 -3.65993,-1.78537 -5.5177,-1.96035 -15.36798,-1.44746 -9.97066,0.51916 -11.61919,0.86802 -14.96732,3.16749 l -3.76255,2.58408 0.60755,7.98643 c 0.68969,9.06606 7.53403,37.09713 9.94231,40.71881 2.2614,3.4008 11.63496,3.97261 16.91008,1.03157 z m -139.45911,0.98243 c 0.63767,-0.78259 0.71556,-1.86533 0.19406,-2.69748 -0.70143,-1.11928 -1.37226,-1.15063 -3.4428,-0.16097 -3.28009,1.56781 -3.40533,4.29068 -0.19405,4.21892 1.30765,-0.0292 2.85691,-0.64143 3.44279,-1.36047 z m 270.17962,-6.21882 c 0,-1.60595 -2.9656,-3.46891 -5.4342,-3.41374 -1.5508,0.0346 -2.1834,3.09784 -0.8991,4.35342 1.3292,1.29952 6.3333,0.55706 6.3333,-0.93968 z m -271.50152,-3.65214 c 4.66308,-1.93063 7.87038,-3.99184 6.15166,-3.95343 -1.93893,0.0433 -19.32302,6.88959 -20.62824,8.12389 -1.68301,1.59154 5.68912,-0.53225 14.47658,-4.17046 z m 280.50152,-3.01019 c -2.8489,-1.57964 -19.2895,-6.68673 -19.8106,-6.15396 -0.774,0.79127 -0.3964,0.9803 8.3106,4.16038 7.4216,2.71061 15.2365,4.06536 11.5,1.99358 z m -290.79919,-0.70004 c 7.49525,-1.75782 14.64112,-5.7247 15.33734,-8.51422 0.32292,-1.29382 -0.56324,-5.51706 -2.03456,-9.6963 -3.00628,-8.53925 -2.95709,-8.41645 -13.08837,-32.66989 -10.76883,-25.7797 -20.41519,-49.84633 -20.41519,-50.93371 0,-0.50672 -1.1479,-2.40062 -2.55089,-4.20869 -1.79028,-2.30717 -3.36169,-3.26927 -5.2701,-3.22662 -4.28305,0.0957 -16.253,3.98643 -21.31301,6.92759 -6.34988,3.69091 -6.7824,6.80892 -2.70243,19.4814 3.6905,11.46278 10.64278,29.48746 14.81177,38.40142 1.66356,3.55696 3.02466,6.70165 3.02466,6.98821 0,0.82012 15.92391,32.1144 18.15744,35.6837 1.76792,2.82524 2.52361,3.19361 6.3749,3.10755 2.40307,-0.0537 6.75387,-0.6569 9.66844,-1.34044 z m -11.98405,-2.28119 c -1.75532,-0.66586 -5.52556,-8.33226 -14.99539,-30.49154 -14.51456,-33.96391 -21.90255,-54.44759 -21.58512,-59.84619 0.10778,-1.83311 1.02122,-4.28412 2.02987,-5.44668 2.85202,-3.28722 10.47625,-8.00424 13.02969,-8.0613 3.64619,-0.0815 2.73167,2.68023 -1.66234,5.02008 -7.79838,4.15271 -7.80961,6.9765 -0.11182,28.12132 12.54276,34.45334 18.82005,49.23812 25.86565,60.92091 2.66254,4.41493 2.78674,4.48397 6.71273,3.73109 10.56195,-2.02543 13.11016,-0.45034 6.60212,4.08087 -2.59136,1.80422 -4.72762,2.37674 -9,2.412 -3.08117,0.0254 -6.17959,-0.17282 -6.88539,-0.44056 z m 316.23364,-9.67621 c 10.3202,-16.47267 23.1232,-45.38379 33.138,-74.83087 5.2014,-15.29403 5.5589,-19.70337 1.8286,-22.55422 -5.4419,-4.15897 -24.0496,-8.92826 -27.089,-6.94311 -2.2369,1.46094 -4.7555,6.59743 -8.8735,18.09666 -1.9782,5.52402 -7.7871,20.05383 -12.9088,32.28847 -15.4181,36.83126 -19.8008,49.70063 -17.9569,52.7297 2.3666,3.88771 13.8682,7.59332 23.4112,7.54264 4.4522,-0.0237 4.542,-0.0909 8.4504,-6.32927 z m -18.4504,2.98898 c -2.336,-0.80176 -6,-4.36433 -6,-5.834 0,-1.7313 3.9008,-1.7785 8.1212,-0.0983 4.5018,1.79225 6.0605,0.74563 10.2786,-6.90142 9.0728,-16.44848 31.2091,-75.11793 30.424,-80.63483 -0.2035,-1.43005 -2.0678,-3.35019 -5.0195,-5.17004 -4.5645,-2.81419 -6.3686,-6.35769 -3.2722,-6.42688 2.8988,-0.0648 8.025,2.53723 11.7429,5.96064 3.1427,2.89368 3.725,4.08167 3.725,7.59937 0,5.67073 -12.6879,39.86078 -26.7908,72.19302 -5.6731,13.00625 -8.1856,17.59989 -10.258,18.75538 -1.9163,1.06839 -10.3983,1.43321 -12.9512,0.55703 z M 224.5113,393.07689 c 2.92286,-0.9333 9.19204,-3.48285 13.9315,-5.66567 4.73947,-2.18281 10.97971,-4.58196 13.86721,-5.33145 3.24087,-0.8412 5.25,-1.89856 5.25,-2.76295 0,-2.32069 -3.44545,-1.5563 -17.4962,3.88159 -19.17744,7.42202 -30.61927,14.68952 -15.55251,9.87848 z m 219.04868,-3.79991 c 0,-1.62837 -34.1089,-14.75464 -38.1081,-14.66527 -3.1894,0.0713 -2.1138,2.84142 1.3581,3.49777 1.7875,0.33792 8.2,2.53759 14.25,4.88816 13.5415,5.26119 22.5,7.76134 22.5,6.27934 z m -139.8201,-2.48864 c 1.71309,-0.9551 1.94468,-1.76684 1.42607,-4.99848 -0.34055,-2.12202 -1.15971,-5.03249 -1.82036,-6.46771 -1.07301,-2.33102 -1.6188,-2.54414 -5.11447,-1.99716 -5.59768,0.87589 -6.11873,1.76586 -4.6581,7.95595 1.88463,7.98697 2.54285,8.89339 5.57253,7.67381 1.402,-0.56437 3.46945,-1.53925 4.59433,-2.16641 z m 62.6971,-3.73061 c 2.1932,-8.75908 0.9092,-11.5945 -5.1888,-11.45823 -3.1883,0.0713 -4.3498,1.62525 -5.6827,7.6026 -0.9734,4.36499 -0.8947,5.03365 0.6989,5.94348 2.6798,1.52994 7.7077,3.179 8.4226,2.76243 0.3449,-0.20096 1.1324,-2.38358 1.75,-4.85028 z m -135.20253,0.30642 c 4.30406,-1.82356 10.73709,-4.4019 14.29562,-5.72964 3.55853,-1.32774 6.60622,-2.82558 6.77263,-3.32854 0.64809,-1.95876 -27.95207,9.26443 -29.31784,11.50482 -0.8064,1.3228 -0.2758,1.16543 8.24959,-2.44664 z m 207.32553,-1.97197 c 0,-1.4053 -26.2498,-10.93373 -29.8968,-10.85223 -2.5123,0.0561 0.01,1.79811 3.4165,2.36136 1.948,0.32191 7.2404,2.10565 11.761,3.96385 10.5751,4.34691 14.7193,5.62148 14.7193,4.52702 z m -209.99997,-2.07163 c 6.875,-2.83938 15.2,-6.15856 18.5,-7.37597 3.3,-1.2174 6.16652,-2.35685 6.37004,-2.5321 0.97976,-0.84369 -1.16301,-7.46329 -2.66307,-8.22698 -1.21611,-0.61912 -6.73937,0.95693 -19.20697,5.48067 -9.625,3.49233 -18.9625,6.82489 -20.75,7.4057 -3.76941,1.22478 -3.99252,2.60282 -1.27421,7.8704 2.33809,4.53079 1.38922,4.66154 19.02421,-2.62172 z m 222.95317,-3.36526 c 1.1258,-2.57007 2.0468,-4.85665 2.0468,-5.08128 0,-1.28609 -33.0619,-12.10507 -39.8424,-13.0378 -3.7101,-0.51036 -4.0985,-0.33252 -5.5728,2.55141 -2.8234,5.5229 -4.012,4.76333 20.9152,13.36519 8.25,2.8469 15.9,5.5351 17,5.97379 3.1534,1.25757 3.2927,1.16123 5.4532,-3.77131 z m -156.45317,-6.22403 c 13.24213,-4.7017 16,-6.01091 16,-7.59556 0,-2.86584 -4.34183,-2.20163 -19.20536,2.93804 -13.06631,4.5182 -18.13367,7.31508 -16.87944,9.31644 1.13459,1.81046 3.23862,1.3224 20.0848,-4.65892 z m 90.50437,1.81963 c 1.0654,-1.30755 0.2988,-1.94284 -5.2102,-4.31762 -7.3862,-3.184 -22.6158,-7.38669 -27.7942,-7.66995 -2.906,-0.15897 -3.5,0.14261 -3.5,1.77715 0,1.65886 2.5174,2.73272 16,6.82504 17.8214,5.40929 18.7327,5.55974 20.5044,3.38538 z M 145.62955,366.6678 c -1.58408,-4.22711 -6.29776,-16.27272 -10.47484,-26.76805 -4.17709,-10.49532 -7.5947,-19.51562 -7.5947,-20.0451 0,-1.16709 -3.29929,-2.95934 -5.36283,-2.91323 -2.54558,0.0569 -4.63717,3.08667 -4.63717,6.71722 0,9.90867 4.45114,23.20267 10.43085,31.15332 3.13788,4.17213 18.71117,19.58187 19.76588,19.5583 0.41413,-0.009 -0.5431,-3.47536 -2.12719,-7.70246 z m 375.47653,-7.81581 c 8.8559,-8.73129 16.583,-19.77969 18.7035,-26.74269 0.8431,-2.76884 2.0894,-8.23135 2.7695,-12.13889 1.42,-8.15957 0.5552,-11.00217 -3.6389,-11.96112 -3.6037,-0.82393 -5.48,1.60122 -9.1477,11.82386 -1.6908,4.71278 -6.2599,16.70639 -10.1534,26.65246 -6.9816,17.83477 -7.6139,19.74457 -6.5293,19.72034 0.3024,-0.007 3.9007,-3.31604 7.9963,-7.35396 z m -237.83664,5.9463 c 3.16302,-1.35623 5.93376,-3.01841 6.1572,-3.69374 0.24744,-0.74784 -0.18363,-0.98832 -1.10262,-0.61514 -0.82989,0.337 -4.71629,1.63961 -8.63645,2.89469 -4.66068,1.49216 -7.12756,2.79305 -7.12756,3.75866 0,1.76676 2.29069,1.26529 10.70943,-2.34447 z m 105.04104,-0.55493 c 0.2185,-0.66038 -2.6818,-1.95094 -6.9375,-3.08702 -4.0221,-1.07372 -7.8611,-2.12078 -8.531,-2.32679 -0.6698,-0.20601 -1.4442,-0.003 -1.7208,0.45032 -0.5355,0.87845 14.292,6.82684 15.8763,6.36913 0.5156,-0.14897 1.1065,-0.78151 1.313,-1.40564 z m 60.2495,-0.50096 c 0,-0.90098 -2.1652,-1.73207 -17.5536,-6.73773 -8.8241,-2.87034 -16.43,-4.38309 -15.127,-3.00864 0.7353,0.7756 30.1056,10.5451 31.9306,10.62113 0.4125,0.0172 0.75,-0.37646 0.75,-0.87476 z m -217.31094,-0.22883 c 5.94603,-2.32562 11.37347,-4.24597 12.06097,-4.26746 0.6875,-0.0214 1.25,-0.71405 1.25,-1.53905 0,-0.825 -0.1125,-1.497 -0.25,-1.49332 -1.26487,0.0343 -27.5851,10.02296 -29.60439,11.23558 -2.6284,1.5784 -2.61836,1.58452 1.54342,0.94069 2.30397,-0.35643 9.05397,-2.55083 15,-4.87644 z m -7.07636,-3.35093 c 10.65768,-3.81316 20.05479,-6.94815 20.88246,-6.96665 1.79332,-0.0401 2.029,-4.19748 0.40764,-7.19077 -0.96867,-1.78833 -1.70098,-1.93404 -6.25,-1.24363 -7.20275,1.09319 -38.72792,12.46264 -39.39136,14.20637 -0.68658,1.80454 2.31947,8.18701 3.83995,8.15304 0.62355,-0.0139 9.85364,-3.1452 20.51131,-6.95836 z m 235.3391,-1.1322 c 1.8232,-4.83598 1.618,-6.04883 -1.2493,-7.38619 -4.4747,-2.0871 -22.1487,-7.6579 -30.4223,-9.58906 -10.5746,-2.46821 -11.8603,-2.32191 -13.1824,1.50002 -1.6123,4.66121 -1.5933,4.68711 4.6522,6.35498 3.1625,0.84455 9.8,2.98918 14.75,4.76583 8.8932,3.19194 20.8019,6.62275 23.2748,6.70527 0.7011,0.0234 1.6808,-1.03448 2.177,-2.35085 z m -174.1198,-0.61019 c 4.58259,-1.5465 8.33398,-3.26187 8.33644,-3.81193 0.002,-0.55004 -2.47414,-1.77906 -5.50354,-2.73112 -5.47183,-1.71967 -5.55779,-1.71515 -13.08644,0.6881 -4.16814,1.33053 -7.57843,2.73643 -7.57843,3.12424 0,0.38781 0.49799,2.12251 1.10665,3.8549 1.03864,2.95624 1.33054,3.10488 4.75,2.41873 2.00384,-0.4021 7.39274,-1.99641 11.97532,-3.54292 z m 106.1928,-1.06376 c 1.7676,-4.68886 1.2552,-5.29487 -6.2179,-7.35346 -7.0324,-1.9372 -7.3229,-1.93928 -13,-0.0935 -3.1938,1.03837 -5.8069,2.43632 -5.8069,3.10655 0,0.67023 2.5875,1.8608 5.75,2.6457 3.1625,0.7849 8,2.04194 10.75,2.79343 6.9292,1.89352 7.4206,1.83019 8.5248,-1.0987 z m -49.52477,-7.29795 c 20.34367,-2.88204 25.20867,-3.84285 29.66197,-5.85812 2.6263,-1.18848 5.3078,-2.81475 5.959,-3.61393 1.0033,-1.23132 0.5845,-1.34381 -2.7442,-0.73714 -5.2423,0.95543 -8.3023,-1.39564 -9.05,-6.95344 -0.4783,-3.55602 -0.1432,-4.53641 2.6666,-7.79938 2.515,-2.92062 3.9523,-3.74859 6.6102,-3.80799 2.3524,-0.0526 3.3964,-0.53699 3.3964,-1.57589 0,-1.91802 3.267,-2.00342 6.9491,-0.18159 3.4738,1.71878 4.0732,1.11993 6.5605,-6.55538 2.3379,-7.21436 2.1914,-22.0765 -0.311,-31.55793 -1.9084,-7.23076 -1.857,-7.19107 -7.4486,-5.74845 -2.1738,0.56084 -2.75,0.35412 -2.75,-0.98653 0,-1.36139 -0.5875,-1.55387 -2.9775,-0.97553 -4.2933,1.03892 -7.0174,-0.0964 -8.4759,-3.53269 -1.5589,-3.67272 -0.5084,-9.317 2.1151,-11.36356 6.7214,-5.24353 15.4462,3.52244 11.3031,11.35649 -1.4541,2.74953 -0.065,2.40627 3.1943,-0.78957 3.5897,-3.51933 5.0492,-2.42077 7.7135,5.80576 5.924,18.29203 5.3976,34.58813 -1.5027,46.51926 -3.2409,5.60366 -4.8338,6.18449 -8.2343,3.00255 -4.0506,-3.79025 -5.2695,-3.26277 -3.3944,1.46895 1.2414,3.13258 1.3526,4.73453 0.5186,7.47057 -0.9754,3.20004 -0.9156,3.40144 0.7372,2.48 3.1098,-1.7338 9.4769,-9.79974 12.1768,-15.42559 3.457,-7.20372 4.8262,-14.2382 4.8262,-24.79516 0,-10.59648 -1.9372,-18.48292 -6.6354,-27.0126 -4.6976,-8.5286 -10.4858,-14.19275 -18.232,-17.84133 -6.1587,-2.90082 -6.9919,-3.01656 -25.4133,-3.53047 -23.98529,-0.66912 -53.99962,1.41894 -60.71927,4.22417 -15.83868,6.61211 -26.20443,22.93733 -27.68734,43.60532 -0.62088,8.6535 0.92359,20.38655 3.21468,24.42135 1.8257,3.21522 1.80882,2.45455 -0.0862,-3.88426 -3.26217,-10.91202 -1.70197,-29.30282 3.53168,-41.62936 2.24052,-5.27699 3.4152,-5.28784 8.91028,-0.0823 2.88002,2.72825 3.13078,3.30732 1.68623,3.89392 -0.93329,0.37899 -2.78462,0.21778 -4.11406,-0.35825 -2.97478,-1.28892 -3.77759,-0.052 -5.9339,9.14293 -2.22427,9.48468 -1.95976,21.49453 0.647,29.37702 1.87677,5.67508 2.44836,6.48632 4.25,6.03189 8.56056,-2.1592 8.58161,-2.16053 8.58161,-0.5422 0,0.8744 -1.0125,2.13451 -2.25,2.80024 -1.2375,0.66574 -3.2396,2.13324 -4.44912,3.26112 -1.21907,1.1368 -2.89027,1.80092 -3.75,1.49022 -2.9085,-1.0511 -1.55782,1.32765 3.56986,6.28706 5.14887,4.97992 6.96577,5.71829 4.96028,2.01582 -3.11256,-5.74632 0.35194,-14.19526 5.84329,-14.25017 7.64505,-0.0764 12.29457,12.01632 6.44083,16.75169 -2.91062,2.35454 -5.49672,2.73054 -8.43088,1.2258 -1.25216,-0.64216 -1.93426,-0.64178 -1.93426,0.001 0,2.53192 8.91318,5.80381 20.5,7.52522 18.98768,2.82094 27.02724,3.06824 40,1.23042 z m -23.5,-10.88155 c -12.43973,-3.3161 -21.98264,-12.45178 -27.05792,-25.90327 -2.98145,-7.902 -2.99917,-21.46485 -0.0382,-29.26188 3.32055,-8.74401 14.75731,-20.92152 17.30742,-18.4284 0.74291,0.72631 -0.0208,2.31702 -2.56905,5.35102 -10.51383,12.51799 -9.94001,31.35621 1.30029,42.68738 6.31031,6.36134 11.90138,8.38425 22.55749,8.16156 7.85653,-0.16416 9.72728,-0.56147 14.72424,-3.12694 3.1483,-1.61637 7.2854,-4.79756 9.1934,-7.06931 11.3781,-13.54703 10.8606,-27.87293 -1.6254,-44.9909 -2.1354,-2.92762 0.035,-3.1907 4.0586,-0.49203 4.8912,3.28031 9.6541,9.06015 12.4436,15.10052 3.1826,6.89164 3.1376,23.21581 -0.087,31.72674 -4.2825,11.30138 -12.2986,19.88535 -22.5401,24.13714 -5.80711,2.41081 -21.92472,3.63906 -27.66684,2.10837 z m -38.16289,-63.44331 c -2.50091,-0.60667 -5.09436,-6.76587 -4.32709,-10.27639 1.53324,-7.01504 10.75089,-8.45831 14.02697,-2.1963 3.98478,7.61669 -1.36423,14.49477 -9.69988,12.47269 z m 6.96718,-6.60742 c 0.34495,-2.98264 -2.02888,-5.83038 -4.80833,-5.76827 -2.39182,0.0534 -3.33073,3.06373 -2.02094,6.47945 0.82409,2.1491 1.56693,2.60119 3.77547,2.29772 2.1226,-0.29167 2.81889,-0.97772 3.0538,-3.0089 z m -5.80387,-0.24552 c -1.01412,-1.19928 -1.04404,-1.83356 -0.13051,-2.7675 1.42923,-1.46117 4.63009,0.10241 4.63009,2.26173 0,1.99415 -2.95968,2.32682 -4.49958,0.50577 z m -7.25042,81.03122 c 3.96266,-1.1505 2.51732,-2.72515 -1.87108,-2.03847 -5.13917,0.80414 -7.64189,2.88766 -3.32892,2.77132 1.6225,-0.0443 3.9625,-0.37355 5.2,-0.73285 z m 117.80887,-3.53411 c -2.1408,-1.57141 -7.5589,-1.83848 -7.5589,-0.3726 0,1.10379 2.384,1.75672 6.5,1.78027 2.848,0.0162 2.9017,-0.0548 1.0589,-1.40767 z m -187.38692,1.80555 c 34.07427,-12.68272 34.82805,-13.01976 34.82805,-15.57251 0,-4.45883 -1.73487,-6.25333 -5.95438,-6.15904 -3.27353,0.0731 -36.63438,11.21039 -39.96082,13.34057 -0.59664,0.38208 -1.0848,1.58258 -1.0848,2.66779 0,2.09985 2.57639,8.85129 3.37093,8.83353 0.26014,-0.006 4.2206,-1.40546 8.80102,-3.11034 z m 262.83602,-8.48844 c 0.6974,-2.50635 0.9959,-4.82306 0.6633,-5.14824 -1.6532,-1.61617 -34.7692,-11.70636 -39.7687,-12.11718 l -5.753,-0.47276 -1.1719,4.37845 c -0.6446,2.40815 -0.7908,4.4991 -0.3248,4.64658 2.5554,0.80882 24.0564,7.96265 31.3471,10.42984 12.0694,4.08431 13.4375,3.92782 15.008,-1.71669 z m -194.89131,5.21046 c 3.66609,-0.81514 3.62384,-1.60677 -0.2553,-4.78417 -4.14033,-3.39134 -10.18006,-3.08934 -10.69172,0.5346 -0.47114,3.337 2.62573,6.37702 5.65327,5.54951 1.32573,-0.36237 3.70792,-0.94734 5.29375,-1.29994 z m 125.43001,-4.21983 c 2.1802,-4.26474 1.2886,-5.93854 -3.1109,-5.84022 -3.8385,0.0858 -9.4358,3.42957 -9.4358,5.63686 0,1.0912 5.48,2.91512 9.7243,3.2366 0.6734,0.051 1.9435,-1.31396 2.8224,-3.03324 z m -164.62519,2.19971 c 2.79319,-0.8919 5.07852,-2.05421 5.07852,-2.5829 0,-0.52869 -0.4026,-0.95227 -0.89466,-0.94127 -1.94856,0.0435 -14.66651,4.5777 -15.60534,5.56356 -1.20781,1.26831 3.943,0.3486 11.42148,-2.03939 z m 204.67549,-2.84748 c -0.721,-1.15056 -15.5891,-5.14986 -16.3298,-4.39252 -1.0266,1.04949 0.4439,1.79148 6.9479,3.50576 6.9829,1.8405 10.1683,2.14158 9.3819,0.88676 z m -148.02747,-4.26998 c 0.95035,-3.80772 0.14936,-5.88597 -2.88303,-7.4803 -2.59803,-1.36595 -2.90321,-1.32987 -4.24293,0.50158 -1.99169,2.72272 -1.80633,5.23644 0.55646,7.54643 2.77486,2.71285 5.81633,2.45002 6.5695,-0.56771 z m -6.04085,-0.79949 c -2.44602,-1.73392 -1.3189,-4.61514 1.83298,-4.68557 2.98787,-0.0668 4.0811,2.32321 2.02445,4.42582 -1.84507,1.8863 -1.58734,1.86895 -3.85743,0.25975 z m 92.88532,-0.62521 c 1.6634,-1.87516 1.6086,-1.93545 -1.5588,-1.71517 -2.403,0.16713 -3.3792,-0.23932 -3.6429,-1.51666 -0.4646,-2.25142 2.5033,-3.46163 4.9202,-2.00628 2.165,1.30368 2.4348,0.25299 0.5769,-2.24636 -1.1131,-1.49729 -1.6669,-1.55644 -4.024,-0.42977 -3.1653,1.51296 -4.3431,4.90201 -2.7352,7.87049 1.3959,2.57716 4.1997,2.59613 6.4638,0.0437 z m 24.9622,-3.19072 c 0.3398,-0.89315 -0.057,-1.785 -0.9362,-2.10262 -1.9566,-0.7071 -2.8494,0.21566 -2.0949,2.16508 0.7591,1.9612 2.273,1.93 3.0311,-0.0627 z m -140.37617,2.17475 c 0,-0.825 -0.675,-1.48492 -1.5,-1.46648 -0.825,0.0184 -1.5,0.70852 -1.5,1.53352 0,0.825 0.675,1.48492 1.5,1.46648 0.825,-0.0184 1.5,-0.70852 1.5,-1.53352 z m 202.99997,-5.29162 c 0,-1.33573 -0.2686,-1.44239 -18,-7.14705 -13.0989,-4.21427 -19.4068,-5.48228 -18.8374,-3.78668 0.2911,0.86665 32.8694,11.80492 36.0874,12.11644 0.4125,0.0399 0.75,-0.49229 0.75,-1.18271 z m -247.49997,0.0364 c 14.06903,-4.93711 19.36434,-7.68309 14.61116,-7.57687 -3.29638,0.0737 -36.11116,11.97615 -36.11116,13.09814 0,1.44226 6.17606,-0.14401 21.5,-5.52127 z m -5.5669,-4.12935 c 11.2382,-4.08068 20.79223,-7.78658 21.23118,-8.23534 0.43894,-0.44874 0.0178,-2.35944 -0.93582,-4.24598 -1.48889,-2.94539 -2.20108,-3.3979 -5.04008,-3.20235 -7.17563,0.49427 -40.48632,13.77998 -40.96974,16.34045 -0.51355,2.72004 1.62765,6.88605 3.50661,6.82259 0.97611,-0.0329 10.96964,-3.39867 22.20785,-7.47937 z m 262.67647,-2.47457 c 0.8292,-2.00297 1.3687,-3.7578 1.199,-3.89961 -2.0547,-1.71683 -20.9458,-8.82495 -30.8086,-11.59228 -13.6328,-3.82513 -15.3224,-3.53388 -16.5956,2.86062 l -0.6075,3.05107 20.8516,6.5723 c 11.4683,3.61475 21.662,6.58969 22.6525,6.61097 1.1607,0.025 2.3371,-1.2561 3.3086,-3.60307 z m -212.46185,4.35584 c -0.61143,-4.32546 -2.04613,-5.95428 -5.1829,-5.88418 -3.40281,0.076 -3.60291,0.93358 -1.32573,5.68149 1.3355,2.78451 2.12269,3.35058 4.25,3.05616 2.15316,-0.29799 2.54915,-0.79826 2.25863,-2.85347 z m 143.29555,-2.42465 c 2.4418,-3.54075 2.0009,-6.50413 -1.0442,-7.01819 -2.2212,-0.37498 -2.8142,0.0763 -4.0622,3.09093 -0.8037,1.9415 -1.2224,4.14714 -0.9305,4.90141 0.8158,2.10764 4.2993,1.54552 6.0369,-0.97415 z M 208.31001,311.13983 c 14.41518,-5.27645 18.07859,-7.35259 15.5,-8.7842 -1.36678,-0.75884 -29.73114,9.9382 -33.97251,12.81203 -2.5013,1.69481 -2.03625,3.86047 0.57366,2.67143 0.90687,-0.41316 8.96135,-3.42782 17.89885,-6.69926 z m 46.02083,4.66139 c -0.61807,-1.84041 -2.77083,-2.09985 -2.77083,-0.33392 0,0.87083 0.7125,1.56741 1.58333,1.54795 0.87084,-0.0195 1.40521,-0.56578 1.1875,-1.21403 z m 155.22914,-3.78131 c 0,-0.825 -0.675,-1.48492 -1.5,-1.46648 -0.825,0.0184 -1.5,0.70852 -1.5,1.53352 0,0.825 0.675,1.48491 1.5,1.46648 0.825,-0.0184 1.5,-0.70852 1.5,-1.53352 z m 62.7951,-2.01806 c -0.2044,-0.60859 -2.6044,-1.92527 -5.3334,-2.92599 -19.9807,-7.32702 -29.7693,-10.26716 -30.7714,-9.24265 -1.3718,1.4024 -0.026,2.85827 3.2382,3.5022 1.598,0.31528 8.9054,2.64597 16.2385,5.17933 13.5604,4.68466 17.2931,5.46747 16.6281,3.48711 z m 8.9969,-7.89502 c -0.1625,-0.82209 -4.5043,-3.08484 -9.792,-5.10321 -9.8387,-3.75555 -32.3814,-11.14558 -33.8954,-11.11175 -1.3478,0.0301 -3.5159,6.07942 -2.499,6.97252 0.492,0.43197 6.9694,2.71121 14.3944,5.06495 7.425,2.35375 16.875,5.54835 21,7.0991 l 7.5,2.81955 1.792,-2.1321 c 0.9856,-1.17266 1.6606,-2.79673 1.5,-3.60906 z m -279.79197,4.68513 c 9.625,-3.72141 18.9625,-7.11564 20.75,-7.54271 3.58798,-0.85727 4.37698,-3.71929 1.93204,-7.00832 -1.24924,-1.68051 -1.96437,-1.53775 -13.71493,2.73787 -11.53392,4.1968 -30.73214,12.10722 -31.64255,13.03798 -0.90064,0.92075 2.1147,5.6106 3.58596,5.57733 0.87421,-0.0198 9.46448,-3.08072 19.08948,-6.80215 z m 53.06574,3.15499 c 2.97159,-1.65676 2.44577,-10.01948 -0.62568,-9.95084 -2.7137,0.0606 -6.44006,2.5136 -6.44006,4.23933 0,3.17488 1.91276,6.86184 3.54099,6.82545 0.87477,-0.0196 2.46091,-0.52082 3.52475,-1.11394 z m 157.40853,-5.43267 c 2.1183,-4.14357 1.9572,-4.81889 -1.5645,-6.56137 -4.0977,-2.02741 -5.4918,-1.2807 -6.2532,3.3494 -0.4866,2.95877 -0.2442,4.13211 1.0461,5.06363 2.7441,1.98097 5.1484,1.32352 6.7716,-1.85166 z m -273.32806,-0.4292 c 4.04458,-2.00846 10.05379,-4.23118 13.35379,-4.93936 7.43165,-1.59483 8.05661,-2.14271 5.70161,-4.99838 -1.78483,-2.1643 -2.12245,-2.21078 -6.78992,-0.93493 -7.24049,1.97918 -20.25251,10.78464 -20.37989,13.79142 -0.047,1.10972 0.13075,1.04579 8.11441,-2.91875 z m 390.85376,-6.66157 c 0,-3.09657 -17.755,-13.08798 -23.1786,-13.04347 -1.9846,0.0163 -4.8214,2.68016 -4.8214,4.52762 0,0.76081 1.7642,1.53346 4.25,1.86133 5.8703,0.77427 15.6461,3.87281 19.25,6.10148 3.6765,2.27351 4.5,2.37472 4.5,0.55304 z m -331.2995,-0.77637 c 5.38974,-2.13585 12.27453,-5.08368 15.29953,-6.55075 8.95386,-4.34247 2.44296,-4.10062 -7.33761,0.27255 -4.48931,2.0073 -11.64501,5.01617 -15.90155,6.68638 -4.25654,1.6702 -7.74404,3.43059 -7.75,3.91197 -0.0163,1.31893 4.82008,-0.0128 15.68963,-4.32015 z m 280.004,-2.2914 c -0.9542,-0.93281 -21.4142,-8.84956 -28.0436,-10.85106 -6.7524,-2.03866 -7.9684,-2.13796 -7.4549,-0.60876 0.3601,1.0722 7.5504,3.84813 24.294,9.37907 7.5758,2.50254 12.588,3.43333 11.2045,2.08075 z m -227.92261,2.89518 c 0.30736,-0.9421 -0.38509,-1.22183 -2.34576,-0.94759 -1.53002,0.21402 -2.97811,0.99061 -3.21796,1.72579 -0.30736,0.9421 0.38509,1.22183 2.34576,0.94759 1.53002,-0.21402 2.97811,-0.99061 3.21796,-1.72579 z m 164.97311,-3.10962 c -0.4767,-1.43677 -4.755,-2.22852 -4.755,-0.87996 0,1.42806 1.1746,2.20998 3.25,2.1636 1.0862,-0.0243 1.7383,-0.58045 1.505,-1.28364 z m -220.09925,-2.31679 c 17.53292,-7.26099 19.34428,-8.14109 19.34428,-9.39893 0,-3.58467 -2.46246,-3.15997 -20.8342,3.59327 -10.26619,3.77373 -19.08109,7.28139 -19.58867,7.7948 -0.56341,0.56987 -0.48001,1.89558 0.21411,3.4035 1.31866,2.86465 0.27369,3.13473 20.86448,-5.39264 z m 291.17655,-2.38922 c 0.1954,-1.01898 -0.024,-2.22206 -0.4885,-2.67353 -1.1496,-1.11829 -35.2516,-12.16011 -37.4071,-12.11194 -1.8289,0.0409 -3.3227,2.6406 -2.3809,4.14344 0.3092,0.49346 1.1232,0.88466 1.8089,0.86934 0.6857,-0.0153 5.2716,1.51699 10.191,3.40513 13.7069,5.26094 24.7846,8.82654 26.4328,8.50795 0.8187,-0.15825 1.6484,-1.12143 1.8438,-2.14039 z m -233.83227,1.66975 c 3.21202,-2.34531 4.96669,-5.84325 4.98526,-9.93815 0.0185,-4.07437 -1.08367,-4.10955 -10.82679,-0.34554 -7.23811,2.79624 -7.333,2.8787 -6.73546,5.85305 0.33335,1.65927 1.30408,4.06654 2.1572,5.34949 1.28528,1.93286 2.09687,2.21045 4.73545,1.6196 1.75139,-0.39216 4.30934,-1.53448 5.68434,-2.53845 z m 165.52967,-2.14997 c 0.016,-0.0696 0.8112,-1.86231 1.7665,-3.98392 0.9553,-2.12162 1.5085,-4.22202 1.2293,-4.66756 -0.7192,-1.14769 -13.1683,-5.74697 -15.4194,-5.69667 -3.6998,0.0827 -3.2666,6.98483 0.7135,11.36886 2.3283,2.56457 7.2831,4.47233 9.6804,3.72729 1.1,-0.34185 2.0134,-0.67845 2.0297,-0.748 z M 134.28949,287.4212 c -0.285,-2.88113 -1.48617,-10.57169 -2.66927,-17.09014 -2.21322,-12.19407 -2.41175,-22.60776 -0.4442,-23.29995 0.72054,-0.25348 1.31803,2.18574 1.68608,6.88332 1.23113,15.71322 4.84628,31.77094 8.07683,35.87555 1.55428,1.97482 3.62461,1.47689 5.32272,-1.28017 0.92203,-1.497 0.65836,-3.47814 -1.2912,-9.70184 -9.11211,-29.08915 -6.47516,-56.11399 7.04602,-72.21133 1.96728,-2.3421 7.1745,-6.85968 11.5716,-10.03908 9.05686,-6.54869 8.62431,-4.60537 4.36161,-19.59531 -1.31432,-4.62185 -2.38967,-9.21032 -2.38967,-10.1966 0,-0.98628 -0.41762,-1.7839 -0.92804,-1.77249 -0.51043,0.0114 -1.2356,2.48915 -1.61149,5.50609 -0.83264,6.68283 -2.9291,9.12318 -4.4439,5.17282 -0.55911,-1.45809 -1.02346,-3.18412 -1.03188,-3.83563 -0.036,-2.7843 -1.95537,2.12941 -1.96938,5.04171 -0.0108,2.24997 -0.57706,3.37381 -1.93173,3.83403 -1.05403,0.35809 -2.39819,2.04384 -2.98701,3.74611 -0.75372,2.17894 -1.52963,2.92915 -2.62144,2.53458 -0.94999,-0.34332 -1.78668,0.11633 -2.15958,1.18629 -0.3348,0.96071 -1.70536,2.96011 -3.04568,4.44312 -1.79458,1.98561 -2.65409,4.45206 -3.26068,9.35686 -0.91427,7.39253 -3.4691,12.59169 -5.30532,10.79651 -0.81324,-0.79507 -0.77952,-3.01932 0.12616,-8.32107 1.24945,-7.31414 4.88733,-15.80809 13.60584,-31.76774 2.48752,-4.55353 5.27239,-10.24076 6.18859,-12.6383 2.36187,-6.1806 3.67541,-7.46133 5.66125,-5.51985 1.9313,1.88813 2.71429,1.93014 2.71429,0.14563 0,-0.75083 0.86389,-2.4827 1.91976,-3.84862 1.18729,-1.53593 2.33631,-5.48768 3.01152,-10.3573 0.94987,-6.85055 0.85771,-9.90812 -0.2547,-8.45011 -20.68207,27.10758 -33.2369,53.229 -39.84846,82.90826 -2.00815,9.01457 -2.32534,13.13085 -2.30789,29.95045 0.0178,17.19874 0.29722,20.55529 2.36781,28.44709 2.56869,9.7903 5.93841,19.36729 6.80764,19.34787 0.30359,-0.007 0.3188,-2.36962 0.0338,-5.25076 z m 395.68499,-12.45679 c 6.0215,-17.02664 7.7014,-43.14139 4.1316,-64.22765 -4.3621,-25.76646 -17.3226,-54.68808 -34.919,-77.92286 -6.197,-8.18258 -8.3828,-9.96288 -7.2261,-5.88535 0.3489,1.2297 0.9164,5.04202 1.2613,8.47181 0.3448,3.4298 1.0348,6.22688 1.5333,6.21574 0.4986,-0.0111 1.584,1.58624 2.4122,3.54974 1.4391,3.41222 1.5888,3.49295 3.3859,1.82638 2.2413,-2.07844 3.5576,-1.5091 4.4212,1.91231 0.8691,3.44355 6.2585,14.19157 11.8926,23.71745 2.5684,4.3426 5.575,10.45168 6.6812,13.57572 2.0106,5.678 2.8051,17.71229 1.1718,17.74879 -1.3634,0.0305 -3.0323,-4.47028 -3.7547,-10.12584 -0.7075,-5.53889 -1.8951,-8.57922 -3.9848,-10.20121 -0.6887,-0.53461 -1.4138,-1.86841 -1.6113,-2.96399 -0.249,-1.38176 -1.0122,-1.88637 -2.4912,-1.64724 -1.6656,0.26928 -2.3885,-0.42593 -3.3029,-3.1762 -0.6439,-1.93651 -1.7626,-3.5077 -2.4861,-3.49153 -1.6643,0.0372 -2.5295,-2.17461 -2.5295,-6.46625 0,-1.84756 -0.45,-3.62725 -1,-3.95488 -0.5929,-0.35318 -1,0.80964 -1,2.85634 0,2.12122 -0.5691,3.68312 -1.4762,4.05147 -1.1001,0.44674 -1.9683,-0.97144 -3.4082,-5.56684 -1.0627,-3.39147 -2.1314,-5.48685 -2.375,-4.6564 -0.8235,2.80803 -3.9987,15.55909 -5.0697,20.35925 -1.2003,5.37977 -1.465,5.01319 7.9518,11.01123 7.6267,4.85783 13.1148,10.93785 16.8689,18.68816 4.7469,9.80007 5.8605,16.83222 5.2457,33.12438 -0.4995,13.23431 -0.9404,15.69904 -5.9306,33.15326 -1.137,3.97682 -1.062,4.4493 1.0277,6.47704 l 2.2541,2.18728 1.8184,-2.43429 c 3.3082,-4.42863 6.5338,-17.66209 7.7461,-31.77944 0.3312,-3.8574 1.0597,-8.14868 1.6189,-9.53617 0.9939,-2.46637 1.0392,-2.43437 2.0255,1.43211 0.7064,2.76922 0.6632,5.63622 -0.1443,9.56342 -0.6342,3.08472 -1.1531,6.79049 -1.1531,8.23504 0,1.44455 -0.8968,6.38751 -1.993,10.98434 -2.1175,8.88006 -2.6237,14.92689 -1.1124,13.28821 0.492,-0.5335 2.076,-4.31049 3.5199,-8.39333 z m -338.91447,8.65397 20,-7.20261 0.59445,-5.52007 c 1.4755,-13.70135 12.20758,-19.43619 21.49724,-11.48735 1.91285,1.63676 4.05749,2.96297 4.76588,2.94714 4.51969,-0.101 36.60116,-15.65339 39.41606,-19.10804 1.87294,-2.29861 -2.02984,-11.715 -6.38075,-15.39514 -5.4484,-4.60841 -10.08971,-5.64088 -18.23896,-4.05728 -15.97571,3.10448 -47.52631,15.68838 -75.30163,30.03391 -16.41507,8.47813 -19.09569,11.24509 -18.99578,19.60758 0.0666,5.57169 2.70368,13.05245 5.59913,15.88319 0.92797,0.90724 2.89257,1.61616 4.36579,1.5754 1.47321,-0.0409 11.67857,-3.31529 22.67857,-7.27673 z m -22.04545,-1.1777 c -2.00807,-1.9632 -2.45455,-3.39519 -2.45455,-7.87257 0,-4.72136 0.36181,-5.76556 2.63486,-7.60433 1.44917,-1.17231 3.24619,-2.14512 3.99337,-2.16182 0.74719,-0.0167 4.12485,2.63153 7.50592,5.88497 5.83041,5.6103 6.07945,6.04382 4.82957,8.40716 -2.95885,5.5948 -12.27743,7.48377 -16.50917,3.34659 z m 10.54545,-2.8571 c 1.11975,-0.80538 0.69277,-0.90222 -1.68434,-0.38201 -2.70071,0.59103 -3.44934,0.29832 -4.92928,-1.92727 -1.40163,-2.10784 -1.51293,-3.00085 -0.56566,-4.53883 1.52071,-2.46903 1.48549,-2.94866 -0.21373,-2.91069 -3.07132,0.0686 -3.48426,6.20059 -0.60699,9.01356 2.17647,2.12784 5.6304,2.44958 8,0.74524 z m 33.3997,-26.43568 c -4.7333,-3.05475 -3.24853,-10.43171 2.23182,-11.08856 3.82124,-0.45801 6.36848,1.77311 6.36848,5.57813 0,4.48996 -5.10915,7.76352 -8.6003,5.51043 z m 43.80227,-5.26244 c -2.01092,-0.76201 -2.21865,-1.34287 -1.66268,-4.64946 0.34944,-2.07825 0.85208,-4.57322 1.11698,-5.54435 0.27182,-0.99651 -0.16815,-2.00051 -1.01,-2.30474 -2.50767,-0.90625 -2.69057,-3.23845 -0.42358,-5.40113 1.58678,-1.51377 3.53047,-2.08605 7.37698,-2.17201 4.60414,-0.10289 5.5291,0.24077 7.81144,2.90217 4.62473,5.39283 2.70487,14.58094 -3.52995,16.89373 -3.75156,1.39164 -6.52588,1.47068 -9.67919,0.2758 z m 9.79803,-5.17002 c 3.6776,-3.75978 2.10525,-10.17337 -2.75,-11.21727 -2.91833,-0.62745 -2.84558,0.086 0.25,2.45179 3.95346,3.02145 2.85276,8.7576 -1.7,8.85933 -0.99,0.0221 -1.8,0.49023 -1.8,1.04023 0,1.73621 3.91655,0.99593 6,-1.13408 z m 233.14777,34.36792 c 1.1155,-2.26778 2.2688,-6.86249 2.5631,-10.21045 0.5112,-5.81821 0.3858,-6.25443 -2.838,-9.8716 -5.1053,-5.72817 -44.3797,-23.4889 -67.6427,-30.58943 -15.6739,-4.78416 -30.562,-7.22255 -35.1264,-5.75304 -6.7937,2.18726 -12.9711,10.1295 -13.3849,17.20888 l -0.2189,3.74437 13,6.23813 c 7.15,3.43099 16.2487,7.26255 20.2194,8.51459 l 7.2194,2.27646 2.7806,-2.71494 c 5.316,-5.19043 12.2165,-6.46452 16.6521,-3.0746 3.535,2.70166 4.7798,5.2007 6.056,12.15799 l 1.0725,5.8469 16.1517,5.48608 c 16.3824,5.56444 27.7111,7.77248 30.1581,5.87797 0.7204,-0.55772 2.2225,-2.86952 3.338,-5.13731 z m -19.1478,0.14373 c -2.5172,-0.86392 -6,-4.41367 -6,-6.11532 0,-0.88384 2.7106,-4.34986 6.0235,-7.70227 5.9433,-6.014 6.0597,-6.07579 8.7356,-4.63368 3.3822,1.82284 5.2165,5.29962 5.1944,9.84569 -0.019,3.86156 -1.3285,6.10382 -4.6377,7.94029 -2.2549,1.25133 -6.6862,1.56779 -9.3158,0.66529 z m 8.0658,-4.50919 c 2.3728,-1.32292 2.6208,-6.75193 0.4355,-9.53343 -1.3837,-1.7611 -1.4519,-1.58964 -0.8877,2.23204 0.5385,3.64781 0.3175,4.33866 -1.8603,5.81426 -1.4456,0.97945 -3.2207,1.40381 -4.2764,1.02229 -1.2419,-0.4488 -1.5794,-0.29236 -1.0819,0.50149 0.8949,1.42795 5.0797,1.40795 7.6708,-0.0367 z m -48.0658,-25.89073 c -3.9667,-3.87803 -1.6037,-9.96416 3.9165,-10.08752 5.3507,-0.11957 8.1541,6.63396 4.2548,10.24993 -2.459,2.28025 -5.7395,2.21505 -8.1713,-0.16241 z m -45.7124,-1.63223 c -2.0223,-0.93663 -3.9834,-3.06308 -5.293,-5.73926 -4.4809,-9.15612 1.6018,-16.13604 12.4933,-14.33616 4.4219,0.73073 6.6392,4.12255 3.9968,6.11379 -1.4693,1.10725 -1.6608,2.24681 -1.1317,6.73628 0.4453,3.77956 0.2626,5.70657 -0.6081,6.41169 -2.4243,1.96322 -6.2625,2.29343 -9.4573,0.81366 z m 5.2124,-4.46274 c -0.3399,-0.5424 -1.4756,-0.96703 -2.5238,-0.9436 -2.8619,0.064 -4.4862,-3.57823 -2.9182,-6.54322 0.6943,-1.31266 2.0902,-2.66792 3.1021,-3.01171 2.7846,-0.94602 2.2028,-2.29043 -0.7211,-1.66617 -5.2255,1.1157 -6.6152,7.13323 -2.6657,11.54267 1.603,1.78969 6.8131,2.35561 5.7267,0.62203 z m -147.39493,34.73942 c 3.08689,-1.66527 3.35598,-2.24493 2.01235,-4.33495 -0.70402,-1.0951 -1.38745,-1.0364 -3.93503,0.33794 -1.69567,0.91475 -3.73053,1.67766 -4.52192,1.69534 -2.13067,0.0476 -6.08083,3.64667 -5.32541,4.85208 0.77977,1.24427 7.39165,-0.18848 11.77001,-2.55041 z m 167.25853,-2.67817 c -0.5462,-1.4113 -10.1114,-5.27918 -12.9011,-5.21684 -0.8044,0.018 -1.4625,0.87154 -1.4625,1.89682 0,1.88232 5.5317,4.46264 11,5.13112 3.2159,0.39314 4.0442,-0.0529 3.3636,-1.8111 z m 24.5866,-4.33378 c 1.2077,-5.38157 0.1862,-8.67074 -3.3353,-10.73935 -3.9787,-2.33723 -7.694,-2.24717 -10.7954,0.26174 -2.5998,2.1031 -6.5457,9.82603 -5.5286,10.82046 0.3322,0.32471 2.1432,-0.39535 4.0245,-1.60012 3.9499,-2.52941 7.9267,-2.9093 9.6106,-0.91806 0.6439,0.76153 1.4381,3.02609 1.7649,5.03235 0.5154,3.16437 0.7837,3.45388 2.0252,2.18468 0.7871,-0.80468 1.7924,-3.07342 2.2341,-5.04165 z m -223.95017,7.71796 c 0,-1.41116 0.46583,-3.44657 1.03518,-4.52313 1.3861,-2.62091 6.90661,-2.70883 10.23769,-0.16308 1.39842,1.06875 2.80911,1.93723 3.13486,1.92995 1.45876,-0.0326 0.36538,-4.39389 -1.97509,-7.87828 -3.70109,-5.51003 -9.38297,-6.53503 -13.93871,-2.51454 -3.02837,2.67257 -4.25329,8.81506 -2.60371,13.05662 1.36413,3.50759 4.10978,3.56933 4.10978,0.0924 z m 158.79997,-7.18286 c 1.9019,-1.94442 1.3946,-2.96963 -0.775,-1.56619 -2.4197,1.56517 -4.6398,-0.0683 -3.6453,-2.68201 0.4481,-1.17772 1.4173,-1.5655 3.1724,-1.2692 1.5941,0.2691 2.3895,0.0166 2.1542,-0.68395 -0.7345,-2.18708 -5.0877,-1.07991 -6.6196,1.6836 -1.2421,2.24085 -1.2697,2.9483 -0.1659,4.25371 1.5699,1.85647 4.2058,1.97485 5.8792,0.26404 z m -129.0833,-0.46079 c 3.71928,-1.48305 8.65014,-3.84497 10.95748,-5.24872 4.33782,-2.63906 8.9691,-8.13564 7.56142,-8.97419 -0.44034,-0.26231 -5.96099,1.85551 -12.2681,4.70625 -16.21721,7.33001 -17.78926,8.2853 -17.21665,10.46218 0.64644,2.45753 2.92391,2.26116 10.96585,-0.94552 z m 170.9514,-2.85235 c 0.333,-0.87509 -0.019,-2.1498 -0.7813,-2.83269 -1.2117,-1.08484 -27.0948,-11.96684 -28.3944,-11.9378 -2.4509,0.0548 5.4379,8.50304 10.4413,11.18173 3.8407,2.05618 13.6136,5.14441 16.3477,5.16585 0.9798,0.008 2.0538,-0.702 2.3867,-1.57709 z M 186.06001,243.51714 c 39.45157,-19.97121 57.0604,-26.22755 75.31928,-26.76064 7.61816,-0.22244 8.62949,-0.0134 12,2.47959 5.56615,4.11705 7.84305,6.96441 11.82364,14.78596 5.32336,10.45996 7.41875,7.21377 3.27782,-5.07801 -2.57577,-7.64579 -5.41308,-10.64777 -13.20359,-13.96985 -5.65513,-2.4115 -6.72661,-2.53729 -15.15132,-1.77886 -18.16494,1.63529 -44.97133,10.41164 -71.06583,23.26677 -4.95,2.43856 -12.24535,5.99217 -16.21189,7.89692 -3.96654,1.90475 -9.22262,4.89153 -11.68018,6.63729 -6.91177,4.90987 -10.22606,3.92765 -9.18009,-2.7206 0.2171,-1.37985 0.70139,-4.74773 1.07622,-7.48418 1.82437,-13.31887 9.44935,-26.76743 18.32835,-32.32661 25.49624,-15.96334 55.22931,-28.27087 86.82436,-35.93957 26.93705,-6.53812 39.02477,-7.99411 71.84323,-8.65373 32.59917,-0.65517 45.46827,0.42521 74.45277,6.25053 25.1184,5.04832 44.7134,11.41245 73.6885,23.93277 13.7321,5.93374 25.859,20.62226 28.8503,34.94441 1.4735,7.0549 0.8921,16.82206 -1.0039,16.86443 -0.5432,0.0121 -9.3127,-3.93234 -19.4877,-8.76551 -36.4516,-17.3147 -63.5606,-25.68023 -87.4364,-26.98193 -8.9703,-0.48906 -13.9127,1.06126 -20.9192,6.56193 -4.9584,3.89277 -9.6942,17.92878 -7.4483,22.07519 1.0378,1.91587 1.1049,1.91775 2.4356,0.0683 0.7526,-1.04606 1.3683,-3.07782 1.3683,-4.51502 0,-3.47196 4.919,-11.18823 9.3498,-14.66677 4.8058,-3.77297 11.7744,-5.90841 19.8659,-6.08762 7.733,-0.17081 11.1134,0.53322 26.3857,5.49905 17.0741,5.5517 25.7454,9.2238 60.3297,25.54832 10.1371,4.78493 18.9797,8.68761 19.6502,8.67262 1.7538,-0.0392 3.744,-9.4217 3.7298,-17.58334 -0.023,-13.2313 -7.8199,-27.85458 -21.1013,-39.57673 -13.113,-11.57353 -52.9323,-25.83557 -93.2098,-33.38482 -18.3982,-3.44838 -48.829,-6.81854 -64.99997,-7.19862 -35.80164,-0.84149 -100.72048,14.27292 -143.76639,33.47171 -21.49545,9.58713 -35.50506,23.95006 -41.78798,42.84187 -2.31311,6.9552 -2.60728,9.15476 -2.14628,16.04796 0.29382,4.39344 1.0554,9.40942 1.6924,11.14661 l 1.15819,3.15856 11.17503,-5.79563 c 6.14627,-3.18759 17.47503,-8.98481 25.17503,-12.88271 z m -13.21585,-3.30978 c 30.85241,-14.8386 56.50427,-24.54152 78.17646,-29.57055 10.01974,-2.32509 11.45846,-2.4384 16.76027,-1.32004 8.84087,1.86487 16.95077,6.18978 20.16236,10.75235 3.01721,4.28642 7.55503,14.52162 7.59302,17.12636 0.0576,3.94987 1.8848,4.12541 34.95483,3.35828 17.52948,-0.40662 32.32218,-1.02771 32.87248,-1.38016 0.5504,-0.35246 1.985,-3.90344 3.1881,-7.89108 3.8478,-12.75422 9.4745,-18.86818 21.5022,-23.36435 7.974,-2.98081 13.9387,-2.90687 28.0838,0.34813 18.1072,4.16675 38.2921,11.10138 73.8149,25.35962 6.541,2.62541 12.2785,4.52641 12.75,4.22444 1.5967,-1.02245 0.8689,-9.22261 -1.335,-15.04304 -2.8561,-7.54312 -9.9157,-16.59565 -15.7048,-20.1385 -39.8131,-24.36489 -106.7306,-38.96204 -164.5304,-35.89008 -51.9217,2.75956 -106.08862,18.11467 -142.54465,40.40824 -11.91627,7.28703 -20.63376,20.51914 -21.76675,33.03935 -0.50758,5.60904 -0.41305,5.95061 1.63429,5.90486 1.19518,-0.0267 7.67018,-2.69243 14.38889,-5.92383 z m 4.94027,-56.25811 c 2.11382,-2.45807 4.35754,-7.12852 5.58465,-11.6248 l 1.02972,-3.77301 -3.32157,0.0742 c -2.80406,0.0627 -3.48732,0.55339 -4.38538,3.14965 -0.72787,2.10423 -1.62469,2.99269 -2.83994,2.81346 -1.46558,-0.21616 -1.71724,0.3371 -1.43936,3.16436 0.41835,4.25643 1.8166,8.02556 2.96772,7.99984 0.47837,-0.0107 1.56024,-0.82237 2.40416,-1.80373 z m 309.72295,-8.92118 c 1.6503,-5.97935 1.3895,-8.1819 -0.8923,-7.53421 -1.5318,0.43479 -2.1242,-0.13586 -2.789,-2.68642 -0.7238,-2.7772 -1.3014,-3.24178 -4.0551,-3.26161 -3.6705,-0.0264 -3.7511,0.30722 -1.7178,7.10863 1.4458,4.83625 5.3662,10.21496 7.4121,10.16924 0.5504,-0.0123 1.4693,-1.72033 2.0421,-3.79563 z m -299.5521,-38.11735 c -0.5172,-2.04912 -0.22776,-2.6647 1.48095,-3.14972 1.89815,-0.5388 2.12378,-1.31383 2.12378,-7.29508 0,-6.57597 -0.64966,-8.26599 -4.1637,-10.83136 -3.19551,-2.33284 -8.4907,5.78371 -7.29814,11.18671 0.48155,2.18175 1.18753,2.79974 3.14828,2.75592 2.01497,-0.045 2.38144,0.30168 1.8071,1.70962 -1.70196,4.17219 -1.6781,5.43395 0.12787,6.76107 2.75699,2.02598 3.49579,1.72311 2.77386,-1.13716 z m 288.5499,-9.53098 c -1.3416,-3.4987 -1.187,-4.32929 0.8143,-4.37401 0.9677,-0.0216 2.2671,-0.86357 2.8876,-1.871 2.3065,-3.74481 -3.3156,-13.95136 -6.8861,-12.50142 -4.2781,1.73727 -6.3267,15.28214 -2.761,18.2555 1.1,0.91727 2,2.70313 2,3.96857 0,2.2106 0.096,2.23584 2.4452,0.64403 2.0605,-1.39617 2.2965,-2.04452 1.5,-4.12167 z M 86.940277,694.88782 c -7.81958,-3.59516 -11.9177,-8.57249 -11.78859,-14.31768 0.0906,-4.03155 9.74367,-26.58326 15.00719,-35.06011 2.89772,-4.66675 9.54428,-7.63688 15.052763,-6.72657 9.16571,1.51468 17.67305,8.0259 18.88386,14.45304 0.5764,3.05957 -2.52916,15.00916 -4.42341,17.02047 -0.40167,0.42649 -4.16561,-0.54695 -8.36431,-2.1632 l -7.63401,-2.93863 2.44312,-5.57892 c 2.74924,-6.27796 3.10049,-9.34474 1.06508,-9.29926 -1.61079,0.036 -15.888163,31.73424 -15.409133,34.21095 0.55297,2.859 2.21413,1.57567 4.9648,-3.83558 1.47269,-2.89717 2.85201,-5.79464 3.06516,-6.43884 0.458313,-1.38516 14.695363,3.72225 15.432383,5.53622 0.76536,1.88371 -3.60848,10.98986 -6.76509,14.08461 -2.46156,2.41334 -3.9675,2.96749 -9.177433,3.37711 -5.2848,0.41549 -7.16333,0.0622 -12.35238,-2.32361 z m 457.251003,-11.3953 c -2.5675,-2.19695 -4.6024,-5.82498 -8.0348,-14.32552 -5.6723,-14.04783 -5.9854,-18.69078 -1.6038,-23.77915 6.3109,-7.32875 18.5453,-10.05073 24.8032,-5.51839 2.2446,1.62563 9.1596,12.38286 9.1922,14.29954 0.01,0.38589 -3.8131,2.57954 -8.488,4.87477 -8.1915,4.02173 -8.465,4.26419 -7.5377,6.68248 2.206,5.7529 5.1739,10.48335 6.5579,10.45242 2.013,-0.045 1.8603,-1.92702 -0.6038,-7.44249 -1.146,-2.56503 -1.9335,-4.8013 -1.75,-4.9695 0.5857,-0.53702 12.758,-6.8205 13.2331,-6.83112 0.2512,-0.006 1.4005,2.49124 2.5541,5.54858 2.5023,6.63216 1.9956,11.06815 -1.7875,15.64866 -3.6584,4.42946 -11.5143,8.02123 -17.8814,8.17544 -4.3836,0.10596 -5.7635,-0.34281 -8.6535,-2.81572 z m 4.9881,-32.461 c -1.5447,-3.66264 -3.6194,-4.80964 -3.6194,-2.00106 0,0.85231 0.7133,2.91308 1.5851,4.57948 2.2814,4.3607 4.0276,2.14749 2.0343,-2.57842 z"
     id="path4184"
     inkscape:connector-curvature="0" />
</svg>
