<?xml version="1.0" encoding="UTF-8" standalone="no"?>
<svg
   xmlns:sketch="http://www.bohemiancoding.com/sketch/ns"
   xmlns:dc="http://purl.org/dc/elements/1.1/"
   xmlns:cc="http://creativecommons.org/ns#"
   xmlns:rdf="http://www.w3.org/1999/02/22-rdf-syntax-ns#"
   xmlns:svg="http://www.w3.org/2000/svg"
   xmlns="http://www.w3.org/2000/svg"
   xmlns:sodipodi="http://sodipodi.sourceforge.net/DTD/sodipodi-0.dtd"
   xmlns:inkscape="http://www.inkscape.org/namespaces/inkscape"
   height="61.799999"
   width="500"
   version="1.1"
   viewBox="0 0 500 61.799999"
   id="svg3444"
   inkscape:version="0.91 r13725"
   sodipodi:docname="Motul_logo.svg">
  <metadata
     id="metadata3463">
    <rdf:RDF>
      <cc:Work
         rdf:about="">
        <dc:format>image/svg+xml</dc:format>
        <dc:type
           rdf:resource="http://purl.org/dc/dcmitype/StillImage" />
        <dc:title>logo_motul_cmyk</dc:title>
      </cc:Work>
    </rdf:RDF>
  </metadata>
  <defs
     id="defs3461" />
  <sodipodi:namedview
     pagecolor="#ffffff"
     bordercolor="#666666"
     borderopacity="1"
     objecttolerance="10"
     gridtolerance="10"
     guidetolerance="10"
     inkscape:pageopacity="0"
     inkscape:pageshadow="2"
     inkscape:window-width="1304"
     inkscape:window-height="746"
     id="namedview3459"
     showgrid="false"
     inkscape:zoom="1.1728395"
     inkscape:cx="258.31692"
     inkscape:cy="-14.565362"
     inkscape:window-x="54"
     inkscape:window-y="-8"
     inkscape:window-maximized="1"
     inkscape:current-layer="svg3444" />
  <!-- Generator: Sketch 3.3.1 (12002) - http://www.bohemiancoding.com/sketch -->
  <title
     id="title3446">logo_motul_cmyk</title>
  <desc
     id="desc3448">Created with Sketch.</desc>
  <g
     id="Page-1"
     sketch:type="MSPage"
     style="fill:none;fill-rule:evenodd"
     transform="matrix(2.6889081,0,0,1.7836956,26.653888,-8.0916297)">
    <g
       id="logo_motul_cmyk"
       sketch:type="MSLayerGroup"
       style="fill:#ffffff">
      <path
         id="Fill-2"
         sketch:type="MSShapeGroup"
         d="m 45.414,7.5568 0,29.04 -10.278,0 0.568,-12.672 -5.589,12.672 -6.853,0 -1.957,-12.859 -3.316,12.833 -10.548,0 8.622,-29.014 11.177,-2e-4 1.739,11.796 4.99,-11.796 11.445,-2e-4"
         inkscape:connector-curvature="0" />
      <path
         id="Fill-3"
         sketch:type="MSShapeGroup"
         d="m 102.97,16.763 -4.615,-0.186 -2.366,19.994 -11.182,0 2.544,-19.954 -4.248,0.146 -7.134,-9.2186 27.971,0 -0.97,9.2186"
         inkscape:connector-curvature="0" />
      <path
         id="Fill-4"
         sketch:type="MSShapeGroup"
         d="m 117.24,7.5444 -2.08,18.031 c -0.07,1.089 0.44,2.178 1.42,2.642 1.01,0.373 2.27,0.222 3.06,-0.527 0.7,-0.594 0.95,-1.398 1.14,-2.241 l 2.49,-17.905 10.68,4e-4 -2.31,19.862 c -0.5,2.833 -1.83,5.511 -4.39,7.317 -3.69,2.64 -8.62,3.043 -13.39,2.393 -3.79,-0.686 -8.11,-3.115 -9.35,-6.91 -0.53,-1.367 -0.44,-3.013 -0.44,-4.507 l 2.21,-18.155 10.96,4e-4"
         inkscape:connector-curvature="0" />
      <path
         id="Fill-5"
         sketch:type="MSShapeGroup"
         d="m 145.57,27.394 8.78,0 -2.59,9.177 -18.7,0 3.89,-29.027 11.11,4e-4 -2.49,19.85"
         inkscape:connector-curvature="0" />
      <path
         id="Fill-6"
         sketch:type="MSShapeGroup"
         d="m 72.368,8.6207 1.107,0.8406 6.536,8.2757 c 0.728,1.396 0.758,3.173 0.694,4.855 -0.093,5.562 -3.787,10.757 -8.938,13.09 C 65.484,38.609 57.083,37.239 52.158,32.45 47.8,28.372 46.915,21.498 49.189,16.211 c 2.653,-5.88 8.904,-9.5526 15.348,-9.2689 2.779,0.0598 5.462,0.5267 7.831,1.6786 z m -6.757,7.9643 c -2.369,-0.315 -4.612,0.775 -5.811,2.86 -1.01,1.743 -1.264,4.167 -0.191,5.942 0.759,1.491 2.339,2.52 4.012,2.674 2.178,0.187 4.106,-0.868 5.242,-2.674 1.168,-1.678 1.234,-4.419 0.283,-6.221 -0.631,-1.369 -2.116,-2.332 -3.535,-2.581 z"
         inkscape:connector-curvature="0" />
    </g>
  </g>
  <path
     style="fill:#000000"
     d="M 48.058022,54.860006 C 48.59128,53.906159 53.812658,42.432369 59.661084,29.362691 l 10.633502,-23.7630497 14.608036,0 14.608036,0 1.264172,5.6382987 c 0.69529,3.101065 1.6045,7.559129 2.02045,9.906809 0.41596,2.347683 1.14834,4.429245 1.62752,4.625696 0.47918,0.196452 3.8204,-4.261613 7.42493,-9.90681 l 6.5537,-10.2639937 14.76676,0 14.76677,0 0,25.4739887 0,25.473989 -13.14901,0 -13.14901,0 0.69847,-11.216159 c 0.38416,-6.168886 0.43522,-11.045064 0.11347,-10.835951 -0.32176,0.209115 -3.82382,5.256387 -7.78236,11.21616 l -7.19736,10.83595 -8.880681,0 -8.880679,0 -1.204144,-4.752608 c -0.662277,-2.613937 -1.838024,-7.583668 -2.612766,-11.04385 -0.774741,-3.46018 -1.800947,-6.02659 -2.280458,-5.703131 -0.479513,0.323457 -2.612045,5.207644 -4.738969,10.853743 L 75.004335,56.16741 61.046401,56.38084 47.08847,56.59427 48.05803,54.860006 Z"
     id="path3465"
     inkscape:connector-curvature="0" />
  <path
     style="fill:#000000"
     d="m 188.62946,57.044027 c -13.35225,-2.311357 -24.51048,-8.123144 -29.42208,-15.324551 -3.61529,-5.300756 -3.67288,-15.152693 -0.1189,-20.341747 3.44199,-5.025554 12.76243,-11.300168 20.63904,-13.8944071 8.79857,-2.8978935 24.71028,-3.5063192 35.2674,-1.3485398 6.62154,1.3533808 7.25181,1.7163735 16.90626,9.7368729 10.88338,9.041426 11.85857,10.656552 10.85725,17.98182 -1.27133,9.300528 -12.12781,18.549638 -25.76127,21.947172 -8.10175,2.018999 -20.69775,2.571092 -28.36769,1.24338 z M 206.5051,40.922141 c 5.05302,-1.733351 7.9073,-5.33361 7.91236,-9.980271 0.006,-4.7898 -3.6122,-8.13162 -10.22485,-9.445854 -12.13353,-2.411485 -23.85388,7.586514 -17.8787,15.251368 3.91463,5.021627 12.52973,6.802895 20.19119,4.174757 z"
     id="path3467"
     inkscape:connector-curvature="0" />
  <path
     style="fill:#000000"
     d="m 255.68941,55.392098 c 0,-0.635536 1.28961,-7.711058 2.86581,-15.723381 3.83591,-19.499232 4.03577,-18.100306 -2.58583,-18.100306 l -5.45166,0 -8.8774,-7.558731 c -4.88257,-4.1573018 -8.8774,-7.7502765 -8.8774,-7.9843847 0,-0.2341101 16.31568,-0.425654 36.25706,-0.425654 l 36.25707,0 -0.8199,6.9525007 c -1.10399,9.36133 -0.95056,9.189482 -7.93505,8.888298 l -5.84944,-0.252238 -3.07435,16.729188 c -1.69089,9.201053 -3.11405,17.156922 -3.16258,17.679709 -0.0656,0.7066 -3.76531,0.95052 -14.41728,0.95052 -12.05481,0 -14.32905,-0.183398 -14.32905,-1.155521 z"
     id="path3469"
     inkscape:connector-curvature="0" />
  <path
     style="fill:#000000"
     d="m 327.14259,56.702578 c -12.43177,-2.937367 -18.98666,-7.924055 -19.6524,-14.950751 -0.36341,-3.835488 2.74551,-24.805233 4.99338,-33.6808273 l 0.62593,-2.4713566 14.29893,0 c 14.22979,0 14.29626,0.00821 13.74049,1.7109386 -0.30716,0.9410171 -1.68266,8.4521893 -3.05673,16.6914943 -2.34561,14.06526 -2.38124,15.099012 -0.58325,16.919291 3.1314,3.170241 11.16879,2.279556 13.32142,-1.476247 0.56792,-0.990923 2.35379,-8.241612 3.96856,-16.112639 1.61474,-7.871028 3.19859,-15.0808822 3.51962,-16.0218993 0.5655,-1.6575598 1.01221,-1.7109386 14.31776,-1.7109386 7.55371,0 13.72534,0.085546 13.71472,0.1901027 -0.78565,7.7344442 -7.21057,37.6804082 -8.53768,39.7932992 -2.59055,4.124435 -9.01389,8.268611 -15.96585,10.300743 -8.19861,2.396547 -26.22718,2.821894 -34.7049,0.81879 z"
     id="path3471"
     inkscape:connector-curvature="0" />
  <path
     style="fill:#800000"
     d="m 385.22402,56.07479 c 0,-0.990301 9.2806,-47.1362133 9.80718,-48.7642083 0.53826,-1.6640863 0.94796,-1.7109404 14.96137,-1.7109404 l 14.40798,0 -0.66688,2.8515673 c -0.36679,1.5683604 -1.70022,8.4976664 -2.96317,15.3984544 -1.26295,6.90079 -2.5791,13.659002 -2.92479,15.018248 l -0.6285,2.471358 11.51517,0 c 12.44734,0 12.50046,0.02165 10.44654,4.258928 -0.58774,1.212542 -1.89175,4.172201 -2.89781,6.577023 l -1.8292,4.372399 -24.61395,0 c -13.53768,0 -24.61394,-0.212773 -24.61394,-0.472829 z"
     id="path3473"
     inkscape:connector-curvature="0" />
  <path
     style="fill:#000000"
     d="m 48.255183,56.065995 c 0.02772,-0.362451 5.099342,-11.780109 11.270265,-25.372572 l 11.219858,-24.7135727 14.222918,0 14.222917,0 1.987629,9.8015207 c 1.0932,5.390837 2.29818,10.007522 2.67773,10.259303 0.95917,0.636266 2.49741,-1.257917 9.18957,-11.316021 l 5.81836,-8.7448027 14.53527,-0.2128234 14.53526,-0.2128235 0,25.4967076 0,25.496708 -12.60956,0 -12.60956,0 0,-11.15279 c 0,-6.134034 -0.3517,-10.919495 -0.78155,-10.634355 -0.42984,0.285139 -3.96282,5.218347 -7.85106,10.962685 l -7.06952,10.444251 -8.448953,0 -8.448947,0 -2.501806,-10.15297 C 86.238012,40.430307 84.625476,35.538598 84.030593,35.143981 83.061492,34.501126 81.416415,37.96942 75.59167,52.935636 l -1.109809,2.851567 -10.559312,0.01035 c -5.807622,0.0057 -11.719966,0.216714 -13.138542,0.468897 -1.418575,0.252184 -2.556546,0.161959 -2.528824,-0.200488 z"
     id="path3475"
     inkscape:connector-curvature="0" />
  <path
     style="fill:#000000"
     d="m 396.97385,55.981057 c -10.06517,-0.238186 -10.60344,-0.336337 -10.60229,-1.93333 0.002,-2.312497 9.16004,-47.1745289 9.70412,-47.5354436 0.24065,-0.1596408 6.58836,-0.478248 14.10601,-0.7080076 l 13.66844,-0.4177469 -3.22545,16.2654301 c -4.2663,21.514194 -4.47676,19.68731 2.26804,19.68731 8.45266,0 16.20554,0.866464 16.23377,1.814298 0.0135,0.465939 -1.13681,3.670213 -2.5571,7.120608 l -2.58229,6.273444 -13.20488,-0.157821 c -7.26269,-0.0868 -17.97645,-0.270735 -23.80837,-0.408745 z"
     id="path3477"
     inkscape:connector-curvature="0" />
  <path
     style="fill:#ff0000"
     d="m 50.250242,52.495052 c 0.713704,-1.882034 5.674505,-13.00314 11.024001,-24.713573 L 71.000602,6.4897874 84.90564,6.0427559 98.810671,5.5957243 100.86393,15.167767 c 1.12929,5.264624 2.99186,9.448298 4.13904,9.297055 1.14718,-0.151239 4.7581,-4.420413 8.02426,-9.487045 l 5.93849,-9.2120558 14.32905,-0.018176 14.32905,-0.018176 0,25.0937798 0,25.09378 -12.60956,0 -12.60957,0 -0.0824,-11.026055 -0.0824,-11.026055 -7.79903,11.026055 c -7.48828,10.586706 -8.11721,11.026055 -15.784029,11.026055 -8.647959,0 -8.431709,0.270289 -11.86873,-14.834605 -1.604517,-7.051471 -4.272051,-7.358722 -6.670544,-0.768325 -0.840028,2.308166 -2.54162,6.763076 -3.781317,9.899798 l -2.253993,5.703132 -12.564875,0 c -11.886297,0 -12.494796,-0.184803 -11.267234,-3.421879 z"
     id="path3479"
     inkscape:connector-curvature="0" />
</svg>
