<?xml version="1.0" encoding="UTF-8" standalone="no"?>
<!-- Generator: Adobe Illustrator 14.0.0, SVG Export Plug-In . SVG Version: 6.00 Build 43363)  -->

<svg
   xmlns:dc="http://purl.org/dc/elements/1.1/"
   xmlns:cc="http://creativecommons.org/ns#"
   xmlns:rdf="http://www.w3.org/1999/02/22-rdf-syntax-ns#"
   xmlns:svg="http://www.w3.org/2000/svg"
   xmlns="http://www.w3.org/2000/svg"
   xmlns:sodipodi="http://sodipodi.sourceforge.net/DTD/sodipodi-0.dtd"
   xmlns:inkscape="http://www.inkscape.org/namespaces/inkscape"
   version="1.1"
   id="Layer_1"
   x="0px"
   y="0px"
   width="500"
   height="61.799999"
   viewBox="0 0 500 61.799999"
   enable-background="new 0 0 612 792"
   xml:space="preserve"
   inkscape:version="0.91 r13725"
   sodipodi:docname="yoshimura.svg"><metadata
     id="metadata3415"><rdf:RDF><cc:Work
         rdf:about=""><dc:format>image/svg+xml</dc:format><dc:type
           rdf:resource="http://purl.org/dc/dcmitype/StillImage" /><dc:title></dc:title></cc:Work></rdf:RDF></metadata><defs
     id="defs3413" /><sodipodi:namedview
     pagecolor="#ffffff"
     bordercolor="#666666"
     borderopacity="1"
     objecttolerance="10"
     gridtolerance="10"
     guidetolerance="10"
     inkscape:pageopacity="0"
     inkscape:pageshadow="2"
     inkscape:window-width="1304"
     inkscape:window-height="746"
     id="namedview3411"
     showgrid="false"
     inkscape:zoom="1.6856283"
     inkscape:cx="280.23165"
     inkscape:cy="-22.594554"
     inkscape:window-x="54"
     inkscape:window-y="-8"
     inkscape:window-maximized="1"
     inkscape:current-layer="g3347" /><g
     id="g3347"
     transform="translate(0,-730.2)"><polygon
       points="259.709,394.997 259.709,394.997 346.883,394.997 346.883,352.492 259.709,352.492 "
       id="polygon3351"
       transform="matrix(1.1631563,0,0,1.2931011,-299.25066,278.14435)"
       style="clip-rule:evenodd;fill:#FF0000;fill-rule:evenodd" /><path
       d="m 42.923162,741.94609 c -0.359416,1.39913 -0.359416,2.9974 -1.07941,4.1974 0,0.6 -0.179125,1.19871 -0.538541,1.79871 -3.2359,-0.6 -6.292676,-1.59957 -9.887991,-2.39871 0.359415,-1.99784 0.897957,-4.1974 1.61795,-5.99611 3.235901,0.80043 6.65209,1.39914 9.887992,2.39871 l 0,0 z"
       id="path3353"
       inkscape:connector-curvature="0"
       style="clip-rule:evenodd;fill:#ffffff;fill-rule:evenodd" /><path
       d="m 27.282199,740.14738 0.179126,0.20043 -0.179126,44.37018 c -6.112386,0 -13.304181,0 -19.4165683,0 -0.359415,-2.19827 -0.179126,-4.99654 -0.179126,-7.19481 l 0.179126,-0.20043 c 3.5953173,-0.19914 7.9106263,0 11.1465273,-0.19914 0.71883,-3.19784 0.180289,-7.19482 0.539704,-10.59309 -0.359415,-0.39956 -0.180289,-0.99956 -0.719993,-1.19999 -3.235901,-0.19914 -7.550047,0 -10.9662383,-0.19914 l -0.179126,-0.39957 0,-6.59611 c 0.179126,-0.79914 1.258535,-0.6 1.977366,-0.6 l 9.1679983,0 0.539704,-0.99827 0,-8.59395 -0.897956,-0.6 -10.6079863,-0.19914 c -0.359415,-2.3987 -0.179126,-4.39654 -0.179126,-6.99568 6.4718013,-0.5987 12.2247733,0 18.8768643,-0.19913 l 0.71883,0.19784 0,0 z"
       id="path3355"
       inkscape:connector-curvature="0"
       style="clip-rule:evenodd;fill:#ffffff;fill-rule:evenodd" /><path
       d="m 68.452116,740.34781 c -1.437661,11.79179 -3.954732,23.18401 -5.213267,35.17623 l 0.360579,0.39957 5.572681,-0.99957 c 0.718831,-0.79913 0.179126,-1.99784 0.179126,-2.99741 -0.359415,-2.59784 -0.897957,-5.19697 -1.437661,-7.79481 1.977366,-0.39957 4.853851,-0.19914 7.011507,0 l 0.359414,0.20043 c 0.718831,4.99654 1.798241,9.79266 2.517071,14.38963 l 1.079409,6.19654 c -2.156492,0.39957 -4.855015,0.20043 -7.011506,0 -0.539705,-0.6 -0.179127,-2.3987 -1.437662,-1.99784 -5.572682,0.79914 -11.325652,1.19871 -16.899497,1.99784 l -0.180289,-0.6 c 1.797076,-11.19179 3.235901,-22.58401 5.213266,-33.77709 0.179126,-3.39698 0.897957,-6.79525 1.437661,-10.19352 2.876486,-0.40086 5.572682,-0.40086 8.449168,0 l 0,0 z"
       id="path3357"
       inkscape:connector-curvature="0"
       style="clip-rule:evenodd;fill:#ffffff;fill-rule:evenodd" /><path
       d="m 100.63316,740.34781 0,6.59611 c -6.471793,0.20043 -13.304183,0.20043 -20.136561,-0.19914 -0.359416,-1.99913 -0.179126,-4.39654 -0.179126,-6.19654 l 0.897957,-0.40086 12.405067,0 c 0.17912,0.6 0.36058,-0.19914 0.71883,0 2.15765,0.20043 4.31647,-0.20043 6.293833,0.20043 l 0,0 z"
       id="path3359"
       inkscape:connector-curvature="0"
       style="clip-rule:evenodd;fill:#ffffff;fill-rule:evenodd" /><path
       d="m 100.63316,752.33874 c 0.17914,2.59784 0.35942,5.99611 -0.17912,8.59395 -0.539703,0.19914 0,0.5987 -0.36058,0.99827 -3.056773,7.79482 -5.213263,15.58963 -8.629463,23.18531 -2.51707,-0.20043 -5.213262,0.19913 -7.370919,-0.40087 1.258536,-3.39697 2.156495,-6.79524 3.595319,-10.19222 l 0,-0.6 4.85386,-13.99135 c 0,-0.39957 -0.35943,-0.99828 -0.71884,-0.79914 -3.59532,-0.19914 -7.909464,0.20043 -11.505944,-0.39957 0,-2.19827 0,-4.39783 0,-6.39567 7.551214,-0.19785 12.405064,-0.39828 20.315687,10e-4 l 0,0 z"
       id="path3361"
       inkscape:connector-curvature="0"
       style="clip-rule:evenodd;fill:#ffffff;fill-rule:evenodd" /><path
       d="m 43.462866,756.13658 -1.437661,5.79568 -0.359416,0.19913 -9.887991,-2.39741 c -0.359416,-1.39913 0.179126,-2.59784 0.359415,-3.5974 0.359416,-0.99828 0.179126,-2.19827 0.89912,-2.79827 3.594153,0.80043 7.010343,1.59956 10.426533,2.79827 l 0,0 z"
       id="path3363"
       inkscape:connector-curvature="0"
       style="clip-rule:evenodd;fill:#ffffff;fill-rule:evenodd" /><path
       d="m 51.552618,774.72361 c -6.65209,3.19784 -13.304181,6.59611 -20.135398,9.39309 l -0.18029,-8.19438 c 1.437661,-1.19871 3.056775,-1.59828 4.853852,-2.39741 5.03414,-2.3987 10.247407,-4.79611 15.640962,-6.79525 l -0.179126,7.99395 0,0 z"
       id="path3365"
       inkscape:connector-curvature="0"
       style="clip-rule:evenodd;fill:#ffffff;fill-rule:evenodd" /><path
       d="m 484.23329,740.82934 2.01583,4.05808 c 3.69276,14.77058 8.05675,28.79835 11.415,43.56176 l -6.04312,0 -11.74952,-43.93197 c -0.67339,-1.47372 -2.35033,-2.95223 -4.02946,-3.32244 -1.67695,-0.36784 -4.02728,-0.73805 -5.37189,0.73805 l -2.35033,2.58439 -12.08621,43.93197 -6.37982,-0.36783 12.75745,-44.66765 c 1.67912,-4.80092 6.38196,-8.49117 11.08046,-8.49117 4.02947,0 8.39127,1.84156 10.74161,5.90681 l 0,0 z"
       id="path3367"
       inkscape:connector-curvature="0"
       style="clip-rule:evenodd;fill:#040607;fill-rule:evenodd" /><path
       d="m 444.6164,747.47179 c 1.67697,4.80092 1.34244,11.07554 -1.34242,15.13841 -1.67695,2.9522 -5.70859,5.16876 -4.36615,8.85901 1.67913,2.21656 4.02946,2.21656 6.71649,2.21656 l 0,5.53657 c -4.36615,0 -9.73587,0 -12.08622,-5.16876 -3.69276,-7.38529 5.0352,-11.44338 6.04311,-18.46083 0,-4.4283 -1.67695,-9.59706 -6.04311,-12.18143 -4.02728,-2.58439 -10.07256,-2.21655 -14.10202,0.73805 -2.34818,1.84632 -3.69277,4.43069 -4.36399,7.38529 l -0.33452,36.54669 -6.0431,0 0.33452,-36.17647 c 0.67338,-5.90681 4.02728,-11.44338 9.06464,-14.39559 6.04313,-3.32722 14.43656,-2.95698 20.14515,1.47371 2.68487,2.21415 5.0352,5.16637 6.37762,8.48879 l 0,0 z"
       id="path3369"
       inkscape:connector-curvature="0"
       style="clip-rule:evenodd;fill:#040607;fill-rule:evenodd" /><path
       d="m 120.9583,736.02842 c 1.34243,8.12095 -3.02154,18.46082 5.37189,23.25937 l 3.69277,1.10588 17.7948,0.36784 c -0.67122,6.2794 2.35034,12.92185 -4.02945,16.2443 l -1.67697,0.36783 -26.18824,0 0,-5.53659 23.1667,0 c 1.67911,-0.73805 2.68485,-2.58437 1.67911,-4.4283 l -1.0079,-1.11067 c -6.0431,-1.10589 -11.75169,1.11067 -17.12358,-2.95221 -3.69277,-3.32241 -7.05103,-7.38528 -6.71433,-12.92188 l 0.33669,-14.76579 4.69851,0.37022 0,0 z"
       id="path3371"
       inkscape:connector-curvature="0"
       style="clip-rule:evenodd;fill:#040607;fill-rule:evenodd" /><path
       d="m 132.03878,751.53466 8.73013,0.36784 1.00574,-1.47851 0,-14.39557 6.04311,0 0,21.41305 -17.12358,-0.36783 c -2.68486,-0.36784 -5.0352,-2.95223 -6.0431,-5.5366 -0.67122,-4.80092 -0.33453,-11.44816 -0.33453,-15.50625 l 5.0352,-0.36783 c 1.0079,5.16638 -2.01364,12.9195 2.68703,15.8717 l 0,0 z"
       id="path3373"
       inkscape:connector-curvature="0"
       style="clip-rule:evenodd;fill:#040607;fill-rule:evenodd" /><path
       d="m 155.87669,774.78925 c -1.0079,4.43071 -4.70068,8.12096 -8.39346,10.33752 l -4.70067,1.47848 -26.85946,-0.36784 0,-5.16876 28.2019,-0.37259 c 2.68486,-0.73805 5.0352,-3.32242 6.3798,-6.27465 1.00573,-11.44337 0.33452,-25.83895 0.67121,-38.39299 l 4.70068,0 c 0,12.55404 0.33669,26.94962 0,38.76083 l 0,0 z"
       id="path3375"
       inkscape:connector-curvature="0"
       style="clip-rule:evenodd;fill:#040607;fill-rule:evenodd" /><path
       d="m 248.20676,742.30303 -24.84582,0 c -2.01581,0.36784 -4.36399,2.21656 -5.37189,4.43071 -1.67911,3.69025 -1.67911,8.85901 0,12.92188 4.70068,7.75313 15.44447,1.10589 21.15088,5.53657 2.35033,3.32244 2.35033,7.01269 0.67121,10.70533 -0.67121,1.84155 -2.68486,2.95222 -4.70068,3.32244 l -22.83216,-0.36784 0,-5.53659 21.48757,0 c 1.34459,-0.73805 1.67911,-2.21653 1.0079,-3.32242 l -1.67696,-1.11064 c -6.0431,-0.36784 -14.10202,1.11064 -18.13149,-4.80092 -3.02155,-4.42833 -4.36398,-10.33274 -3.35607,-16.2443 0.67122,-4.42833 4.36397,-9.22685 8.39344,-10.70535 l 3.02156,-0.73805 25.18034,0.36783 0,5.54135 0.001,0 z"
       id="path3377"
       inkscape:connector-curvature="0"
       style="clip-rule:evenodd;fill:#040607;fill-rule:evenodd" /><polygon
       points="283.048,433.174 280.73,433.174 280.885,412.152 283.048,412.152 283.048,433.174 "
       id="polygon3379"
       transform="matrix(2.1722165,0,0,2.3885164,-356.56442,-247.66775)"
       style="clip-rule:evenodd;fill:#040607;fill-rule:evenodd" /><path
       d="m 266.67277,736.76409 c 0,5.90678 0,12.92185 0.33451,18.09061 3.02373,0 6.04312,0 8.73015,0 0.33452,-6.64248 0.33452,-11.81121 0.33452,-18.09061 l 5.0352,0 0,23.25937 c -6.3798,0.36781 -13.42865,0.36781 -19.47176,0 l 0,-23.25937 5.03738,0 0,0 z"
       id="path3381"
       inkscape:connector-curvature="0"
       style="clip-rule:evenodd;fill:#040607;fill-rule:evenodd" /><polygon
       points="297.269,433.328 294.95,433.328 295.104,412.152 297.269,412.152 297.269,433.328 "
       id="polygon3383"
       transform="matrix(2.1722165,0,0,2.3885164,-356.56442,-247.66775)"
       style="clip-rule:evenodd;fill:#040607;fill-rule:evenodd" /><polygon
       points="299.277,412.152 299.433,412.152 301.596,412.152 301.596,433.328 301.596,433.328 299.277,433.328 "
       id="polygon3385"
       transform="matrix(2.1722165,0,0,2.3885164,-356.56442,-247.66775)"
       style="clip-rule:evenodd;fill:#040607;fill-rule:evenodd" /><polygon
       points="304.842,433.328 302.833,433.328 303.142,412.152 304.842,412.152 304.842,433.328 "
       id="polygon3387"
       transform="matrix(2.1722165,0,0,2.3885164,-356.56442,-247.66775)"
       style="clip-rule:evenodd;fill:#040607;fill-rule:evenodd" /><path
       d="m 332.14337,740.0865 c 3.35607,3.3272 2.34818,8.49596 5.0352,12.18621 3.69277,-4.80092 3.02156,-15.13841 11.08049,-14.76581 2.35033,-0.3726 5.0352,0 7.05101,1.84155 l 2.34817,3.32242 c 3.35823,14.7706 6.38196,29.53401 9.40136,44.30459 l -4.70068,0 -9.39919,-42.08804 c -1.00791,-1.10588 -2.35034,-2.58439 -4.02946,-1.84155 -1.34244,0 -2.68486,1.10588 -3.35607,2.58436 l -8.39345,33.59211 -8.39346,-34.33492 c -0.67338,-1.84155 -2.35033,-2.21655 -3.69274,-2.21655 -1.67696,0 -2.68488,1.84634 -3.35826,3.3272 l -9.39919,40.60956 -4.70285,0 9.40136,-43.93676 c 1.34459,-3.69025 4.70068,-5.53657 8.05894,-5.53657 3.0172,0 5.36753,0.74043 7.04882,2.9522 l 0,0 z"
       id="path3389"
       inkscape:connector-curvature="0"
       style="clip-rule:evenodd;fill:#040607;fill-rule:evenodd" /><path
       d="m 375.78972,771.46921 c 0.33453,4.43071 4.0273,8.85901 7.72225,10.33752 4.70067,1.84631 10.07473,0.73805 13.4308,-3.69028 2.01581,-2.58436 3.02373,-5.53657 3.02373,-9.2316 l 0.33452,-31.37795 4.70068,0 -0.33453,34.33015 c -0.67338,5.53659 -3.35826,10.70532 -8.05893,13.65993 -5.03519,2.9522 -11.41499,3.32242 -16.45019,0.74281 -11.75168,-5.91157 -9.40134,-19.93933 -9.73586,-31.75055 l 0.33452,-17.35494 5.03519,0.3726 0,33.96231 -10e-4,0 z"
       id="path3391"
       inkscape:connector-curvature="0"
       style="clip-rule:evenodd;fill:#040607;fill-rule:evenodd" /><path
       d="m 383.84648,768.1468 c 0.33453,1.47848 1.34243,3.32241 3.02155,3.69025 2.01582,0.74283 3.69278,-0.73805 4.36615,-2.21177 l 0.67121,-4.06288 0.33453,-28.0555 4.70068,0 0,32.11838 c -0.33453,3.32244 -2.01364,6.64248 -5.03521,8.49117 -2.01363,1.10589 -4.70067,1.47372 -7.051,0.36784 -2.35035,-0.74284 -4.69852,-2.9522 -5.3719,-5.90681 l -1.0079,-5.53657 0.33453,-29.53401 4.70067,-0.3726 c 0.33669,9.23161 0,20.67498 0.33669,31.0125 l 0,0 z"
       id="path3393"
       inkscape:connector-curvature="0"
       style="clip-rule:evenodd;fill:#040607;fill-rule:evenodd" /><path
       d="m 433.53593,746.73374 c 2.01583,2.21653 3.35825,4.80092 2.68486,8.12096 -0.67122,7.38529 -8.39344,12.18621 -5.7064,20.30239 2.68485,5.91156 9.06465,7.75312 15.10775,7.38528 l 0,5.5366 c -7.38553,-0.36784 -16.11568,-0.73805 -19.4739,-8.85901 -3.35826,-8.85901 1.00789,-16.61214 5.0352,-23.62959 0.33449,-1.47372 0,-3.32244 -1.00793,-4.42833 -1.34243,-1.47848 -3.02154,-1.11064 -4.70067,-0.74281 -1.34244,0.74281 -2.35033,2.21653 -2.35033,3.69504 l -0.33453,33.96232 -5.0352,0 0.33452,-35.44083 c 0.33669,-3.69025 2.68704,-7.38528 6.38196,-8.49117 3.35826,-0.73089 6.71434,0.005 9.06467,2.58915 l 0,0 z"
       id="path3395"
       inkscape:connector-curvature="0"
       style="clip-rule:evenodd;fill:#040607;fill-rule:evenodd" /><path
       d="m 248.20676,750.05616 -21.15088,0 c -0.6734,0.36783 -1.67913,1.11067 -1.67913,2.21655 0.33671,1.10589 1.00573,1.84632 2.01366,2.21653 7.051,0 14.77325,-1.47848 19.13722,5.5366 3.69277,6.27462 3.69277,13.28969 1.00791,19.93455 -2.68487,4.80092 -7.72223,7.38529 -12.7596,7.01745 l -22.49547,-0.36781 0,-5.53659 25.85372,0 c 4.02728,-1.11065 5.70641,-6.27941 6.0431,-10.33749 0,-2.58439 -0.67122,-5.5366 -2.01363,-7.38529 -4.70068,-5.90681 -13.09413,-2.58439 -18.12933,-3.69028 -2.01365,-0.36783 -3.35824,-2.58437 -4.02947,-4.43068 -0.67122,-2.95222 -0.33452,-5.16876 0.67123,-7.75312 1.00791,-2.21656 3.02154,-3.32245 5.03737,-3.32245 l 22.4933,0.36784 0,5.53419 0,0 z"
       id="path3397"
       inkscape:connector-curvature="0"
       style="clip-rule:evenodd;fill:#040607;fill-rule:evenodd" /><path
       d="m 334.49155,781.06865 c 0.67337,1.10589 1.67913,2.21177 2.68702,2.58439 1.34244,0 2.68486,-1.84631 3.02156,-2.95698 l 8.05893,-33.22427 c 0,-0.36783 0.33451,-1.10588 1.00789,-1.47372 1.00574,0 1.34244,1.47372 1.67695,2.21656 l 8.05895,38.76321 -5.70859,0 -4.02731,-15.50625 -0.67338,-0.73805 c -3.02156,5.5366 -2.01582,14.02777 -9.06467,16.61214 -3.02373,1.10588 -6.38195,0 -8.39342,-2.95221 -3.35825,-3.69503 -2.35035,-9.60181 -5.3719,-13.65993 -2.68703,4.80092 -3.02373,10.70535 -4.36615,15.87409 l -6.04311,0 8.39344,-38.02517 c 0.33453,-0.74283 0.67339,-2.21655 1.67695,-2.58439 l 1.34243,1.10589 7.72441,33.96469 0,0 z"
       id="path3399"
       inkscape:connector-curvature="0"
       style="clip-rule:evenodd;fill:#040607;fill-rule:evenodd" /><path
       d="m 280.77263,787.3433 -5.0352,-0.36784 0.33452,-17.35018 c -2.68485,-0.74281 -6.3798,-0.3726 -9.40135,-0.3726 l 0,17.72278 -5.03521,0 0,-23.25937 19.47176,0 -0.33452,23.62721 0,0 z"
       id="path3401"
       inkscape:connector-curvature="0"
       style="clip-rule:evenodd;fill:#040607;fill-rule:evenodd" /><path
       d="m 485.24121,773.31553 c 1.34241,4.80092 2.35034,10.33751 3.02372,15.13365 l -6.04311,-0.36783 -2.01581,-8.85901 -12.75743,0 -2.01582,8.85901 -6.04312,0.36783 3.02158,-15.13365 22.82999,0 0,0 z"
       id="path3403"
       inkscape:connector-curvature="0"
       style="clip-rule:evenodd;fill:#040607;fill-rule:evenodd" /><path
       d="m 478.1902,745.62785 6.04309,24.36526 -20.81634,0 7.05101,-25.4759 c 0.6712,-0.73808 1.67694,-1.47372 2.68486,-1.84634 2.35251,-0.36784 4.36833,0.74283 5.03738,2.95698 l 0,0 0,0 z m -4.70067,10.33274 c -1.00576,1.84631 -1.00576,4.43068 -1.67697,6.64723 1.34244,0.36784 3.02372,0 4.0273,0.36784 l -0.67123,-5.16876 c -0.33452,-0.73567 -0.33452,-2.21415 -1.6791,-1.84631 l 0,0 z"
       id="path3405"
       inkscape:connector-curvature="0"
       style="clip-rule:evenodd;fill:#040607;fill-rule:evenodd" /><path
       d="m 202.87911,747.47179 c 4.70068,7.01745 5.70642,17.72281 2.01364,25.47593 -3.69275,8.85901 -12.0862,14.39558 -20.47965,14.76579 -8.73013,0.36784 -16.45237,-4.80092 -21.15088,-12.92185 -3.69276,-7.0127 -4.02945,-16.97997 -0.67122,-24.36526 3.69278,-8.12096 11.41499,-13.65993 19.47177,-14.02777 8.39561,-0.74043 16.11784,3.68787 20.81634,11.07316 l 0,0 0,0 z m -19.13723,-5.90681 c -6.71431,0.36784 -12.75743,3.69028 -16.11568,10.33752 -3.02154,5.16873 -3.35826,12.92185 -1.00789,18.46083 2.35033,5.90681 7.72221,10.33273 13.43081,11.4434 7.72223,1.47369 15.44446,-1.84634 19.47391,-9.22685 3.35608,-5.53659 3.35608,-13.65993 1.00792,-19.20128 -3.35825,-7.38053 -9.73805,-11.44578 -16.78907,-11.81362 l 0,0 z"
       id="path3407"
       inkscape:connector-curvature="0"
       style="clip-rule:evenodd;fill:#040607;fill-rule:evenodd" /><path
       d="m 195.49358,750.79183 c 3.35824,4.06287 4.36398,10.33751 3.35824,15.50625 -1.00791,4.4307 -4.02946,8.85901 -7.72223,11.07556 -4.70068,2.58437 -10.74378,2.21653 -15.10994,-0.36783 -5.0352,-2.95223 -7.72223,-8.49118 -8.05892,-14.39561 -0.33453,-5.16873 1.67912,-10.33749 5.70858,-14.02774 3.69276,-3.3272 8.73014,-4.43071 13.76534,-3.3272 3.02373,0.74281 6.04527,2.58437 8.05893,5.53657 l 0,0 0,0 z m -7.38555,0.375 c -3.35606,-1.47848 -7.051,-1.11067 -10.07257,0.73805 -3.69275,2.21653 -5.37188,6.64245 -5.0352,11.44337 0.33669,4.43071 3.69278,8.49118 7.38555,9.60185 4.02729,1.10588 7.72222,0.36783 10.74378,-2.58437 3.02156,-3.32244 4.02729,-8.86379 2.01364,-13.28972 -0.6712,-2.58915 -2.68485,-4.8033 -5.0352,-5.90918 l 0,0 z"
       id="path3409"
       inkscape:connector-curvature="0"
       style="clip-rule:evenodd;fill:#040607;fill-rule:evenodd" /></g></svg>